<svg xmlns="http://www.w3.org/2000/svg" width="14" height="15" viewBox="0 0 14 15">
  <g id="notification-bell-outline-interface-symbol" transform="translate(-21.857)">
    <g id="_x36__27_" transform="translate(21.857)">
      <g id="Group_4080" data-name="Group 4080" transform="translate(0)">
        <path id="Path_1210" data-name="Path 1210" d="M33.857,9V5a5,5,0,1,0-10,0V9l-2,4h4.55a2.5,2.5,0,0,0,4.9,0h4.551Zm-5,5a1.5,1.5,0,0,1-1.408-1h2.816A1.5,1.5,0,0,1,28.857,14Zm-5.5-2,1.5-3V5a4,4,0,1,1,8,0V9l1.5,3h-11Z" transform="translate(-21.857)" fill="#ff7a17"/>
      </g>
    </g>
  </g>
</svg>
