<svg xmlns="http://www.w3.org/2000/svg" width="146" height="22.773" viewBox="0 0 146 22.773"><g transform="translate(-125 -360.939)"><path d="M117.5,22.272V.5a.5.5,0,1,1,1,0V22.272a.5.5,0,1,1-1,0Zm-25,0V.5a.5.5,0,1,1,1,0V22.272a.5.5,0,1,1-1,0Zm-70,0V.5a.5.5,0,1,1,1,0V22.272a.5.5,0,1,1-1,0ZM60,21.429V1.344a.5.5,0,1,1,1,0V21.429a.5.5,0,0,1-1,0Zm55-.843V3.03a.5.5,0,1,1,1,0V20.586a.5.5,0,0,1-1,0Zm-2.5,0V3.03a.5.5,0,1,1,1,0V20.586a.5.5,0,0,1-1,0Zm-92.5,0V3.03a.5.5,0,0,1,1,0V20.586a.5.5,0,0,1-1,0Zm80-.843V3.03a.5.5,0,1,1,1,0V19.742a.5.5,0,0,1-1,0Zm-10,0V3.03a.5.5,0,1,1,1,0V19.742a.5.5,0,0,1-1,0Zm-2.5,0V3.03a.5.5,0,0,1,1,0V19.742a.5.5,0,0,1-1,0ZM110,18.9V4.717a.5.5,0,0,1,1,0V18.9a.5.5,0,0,1-1,0Zm-15,0V3.874a.5.5,0,0,1,1,0V18.9a.5.5,0,0,1-1,0Zm-22.5,0V3.874a.5.5,0,0,1,1,0V18.9a.5.5,0,0,1-1,0Zm-5,0V4.717a.5.5,0,0,1,1,0V18.9a.5.5,0,0,1-1,0Zm-2.5,0V4.717a.5.5,0,0,1,1,0V18.9a.5.5,0,0,1-1,0Zm-27.5,0V3.874a.5.5,0,0,1,1,0V18.9a.5.5,0,0,1-1,0ZM125,17.212V5.56a.5.5,0,0,1,1,0V17.212a.5.5,0,1,1-1,0Zm-2.5,0V5.56a.5.5,0,0,1,1,0V17.212a.5.5,0,1,1-1,0Zm-17.5,0V5.56a.5.5,0,0,1,1,0V17.212a.5.5,0,1,1-1,0Zm-2.5,0V5.56a.5.5,0,0,1,1,0V17.212a.5.5,0,1,1-1,0Zm-17.5,0V5.56a.5.5,0,0,1,1,0V17.212a.5.5,0,1,1-1,0Zm-2.5,0V6.4a.5.5,0,0,1,1,0V17.212a.5.5,0,1,1-1,0Zm-7.5,0V6.4a.5.5,0,0,1,1,0V17.212a.5.5,0,1,1-1,0Zm-17.5,0V6.4a.5.5,0,0,1,1,0V17.212a.5.5,0,1,1-1,0Zm-7.5,0V6.4a.5.5,0,0,1,1,0V17.212a.5.5,0,1,1-1,0Zm-2.5,0V5.56a.5.5,0,0,1,1,0V17.212a.5.5,0,1,1-1,0Zm-7.5,0V5.56a.5.5,0,0,1,1,0V17.212a.5.5,0,1,1-1,0Zm-10,0V5.56a.5.5,0,0,1,1,0V17.212a.5.5,0,1,1-1,0Zm-2.5,0V5.56a.5.5,0,0,1,1,0V17.212a.5.5,0,1,1-1,0Zm-10,0V5.56a.5.5,0,0,1,1,0V17.212a.5.5,0,1,1-1,0Zm-2.5,0V6.4a.5.5,0,0,1,1,0V17.212a.5.5,0,1,1-1,0Zm112.5-.843V7.248a.5.5,0,1,1,1,0v9.121a.5.5,0,1,1-1,0Zm-7.5,0V6.4a.5.5,0,0,1,1,0v9.965a.5.5,0,1,1-1,0Zm-12.5,0V6.4a.5.5,0,0,1,1,0v9.965a.5.5,0,1,1-1,0Zm-10,0V6.4a.5.5,0,0,1,1,0v9.965a.5.5,0,1,1-1,0Zm-17.5,0V7.248a.5.5,0,1,1,1,0v9.121a.5.5,0,1,1-1,0Zm-27.5,0V7.248a.5.5,0,1,1,1,0v9.121a.5.5,0,1,1-1,0Zm-7.5,0V6.4a.5.5,0,0,1,1,0v9.965a.5.5,0,1,1-1,0Zm-10,0V6.4a.5.5,0,0,1,1,0v9.965a.5.5,0,1,1-1,0Zm-2.5,0V7.248a.5.5,0,0,1,1,0v9.121a.5.5,0,0,1-1,0Zm-7.5,0V6.4a.5.5,0,0,1,1,0v9.965a.5.5,0,1,1-1,0Zm-12.5,0V7.248a.5.5,0,1,1,1,0v9.121a.5.5,0,1,1-1,0ZM130,15.525V8.934a.5.5,0,1,1,1,0v6.591a.5.5,0,1,1-1,0Zm-87.5,0V8.091a.5.5,0,0,1,1,0v7.434a.5.5,0,0,1-1,0Zm90-.843v-4.9a.5.5,0,0,1,1,0v4.9a.5.5,0,0,1-1,0Zm-55,0V8.091a.5.5,0,1,1,1,0v6.591a.5.5,0,0,1-1,0Zm-7.5,0V8.091a.5.5,0,1,1,1,0v6.591a.5.5,0,0,1-1,0Zm-7.5,0V8.091a.5.5,0,1,1,1,0v6.591a.5.5,0,0,1-1,0Zm-7.5,0V8.091a.5.5,0,1,1,1,0v6.591a.5.5,0,0,1-1,0Zm-45,0V8.091a.5.5,0,1,1,1,0v6.591a.5.5,0,0,1-1,0Zm125-.843V10.621a.5.5,0,0,1,1,0v3.217a.5.5,0,0,1-1,0Zm-127.5,0v-4.9a.5.5,0,1,1,1,0v4.9a.5.5,0,0,1-1,0ZM145,13V11.464a.5.5,0,0,1,1,0V13a.5.5,0,0,1-1,0Zm-2.5,0V11.464a.5.5,0,0,1,1,0V13a.5.5,0,0,1-1,0ZM140,13V11.464a.5.5,0,0,1,1,0V13a.5.5,0,0,1-1,0Zm-2.5,0V11.464a.5.5,0,0,1,1,0V13a.5.5,0,0,1-1,0ZM5,13V9.778a.5.5,0,1,1,1,0V13a.5.5,0,0,1-1,0Zm-2.5-.844v-1.53a.5.5,0,0,1,1,0v1.53a.5.5,0,1,1-1,0Zm-2.5,0v-1.53a.5.5,0,0,1,1,0v1.53a.5.5,0,1,1-1,0Z" transform="translate(125 360.939)" fill="#003aa8"/></g></svg>