<svg xmlns="http://www.w3.org/2000/svg" width="11" height="19.333" viewBox="0 0 11 19.333"><g transform="translate(-915 -236.667)"><path d="M18.09,75.244a.833.833,0,0,0-1.179,0L9.167,82.988,1.423,75.244A.833.833,0,0,0,.245,76.423l8.334,8.333a.833.833,0,0,0,1.178,0l8.333-8.333A.833.833,0,0,0,18.09,75.244Z" transform="translate(1000.5 237.166) rotate(90)"/><path d="M.834,74.5a1.325,1.325,0,0,1,.943.39l7.391,7.391,7.39-7.391a1.333,1.333,0,1,1,1.885,1.886L10.11,85.109a1.333,1.333,0,0,1-1.886,0L-.109,76.776A1.333,1.333,0,0,1,.834,74.5Zm8.334,9.2-8.1-8.1a.333.333,0,0,0-.471.471L8.932,84.4a.331.331,0,0,0,.236.1.335.335,0,0,0,.236-.1l8.333-8.333a.333.333,0,1,0-.471-.471Z" transform="translate(1000.5 237.166) rotate(90)"/></g></svg>