<svg xmlns="http://www.w3.org/2000/svg" width="18.784" height="18" viewBox="0 0 18.784 18"><g transform="translate(0 -10.679)"><g transform="translate(0 10.679)"><path d="M17.61,18.9H1.957V12.3a.886.886,0,0,1,.888-.837H4.481a.84.84,0,0,1,.837.834,1.831,1.831,0,0,0-1.4,1.64v1.049a.392.392,0,0,0,.391.391H7.044a.392.392,0,0,0,.391-.391V13.935A1.773,1.773,0,0,0,6.1,12.3a1.621,1.621,0,0,0-1.62-1.62H2.845A1.67,1.67,0,0,0,1.174,12.3v6.6A1.17,1.17,0,0,0,.391,20.94V22.99a4.79,4.79,0,0,0,1.855,3.847L1.6,28.113a.391.391,0,0,0,.7.348l.6-1.2a5.357,5.357,0,0,0,2.571.634h7.826a5.357,5.357,0,0,0,2.571-.634l.6,1.2a.391.391,0,0,0,.7-.348l-.642-1.28a4.784,4.784,0,0,0,1.855-3.847V20.936a1.151,1.151,0,0,0,.391-.865A1.172,1.172,0,0,0,17.61,18.9Zm-11.9-5.87a1,1,0,0,1,.943.908v.657H4.7v-.657A1.074,1.074,0,0,1,5.709,13.027Zm11.9,9.963a4.125,4.125,0,0,1-4.3,4.125H5.479a4.125,4.125,0,0,1-4.3-4.125V21.245H17.61Zm0-2.528H1.186a.4.4,0,0,1-.4-.333.392.392,0,0,1,.387-.45H17.6a.4.4,0,0,1,.4.333A.392.392,0,0,1,17.61,20.462Z" transform="translate(0 -10.679)"/></g></g></svg>