<svg xmlns="http://www.w3.org/2000/svg" width="25.364" height="18" viewBox="0 0 25.364 18"><path d="M32.955,93.5h-.409V90.227a1.638,1.638,0,0,0-1.636-1.636V81.636A1.639,1.639,0,0,0,29.273,80H12.091a1.639,1.639,0,0,0-1.636,1.636v6.955a1.638,1.638,0,0,0-1.636,1.636V93.5H8.409A.409.409,0,0,0,8,93.909v1.636a.409.409,0,0,0,.409.409h.409v1.636A.409.409,0,0,0,9.227,98h1.227a.409.409,0,0,0,.4-.329l.344-1.717H30.165l.344,1.717a.409.409,0,0,0,.4.329h1.227a.409.409,0,0,0,.409-.409V95.955h.409a.409.409,0,0,0,.409-.409V93.909A.409.409,0,0,0,32.955,93.5ZM11.273,81.636a.819.819,0,0,1,.818-.818H29.273a.819.819,0,0,1,.818.818v6.955h-.818V86.955a1.639,1.639,0,0,0-1.636-1.636H22.727a1.639,1.639,0,0,0-1.636,1.636v1.636h-.818V86.955a1.639,1.639,0,0,0-1.636-1.636H13.727a1.639,1.639,0,0,0-1.636,1.636v1.636h-.818Zm17.182,5.318v1.636H21.909V86.955a.819.819,0,0,1,.818-.818h4.909a.819.819,0,0,1,.818.818Zm-9,0v1.636H12.909V86.955a.819.819,0,0,1,.818-.818h4.909A.819.819,0,0,1,19.455,86.955ZM9.636,90.227a.819.819,0,0,1,.818-.818H30.909a.819.819,0,0,1,.818.818V93.5H9.636Zm.483,6.955H9.636V95.955h.728Zm21.608,0h-.483L31,95.955h.728Zm.818-2.045H8.818v-.818H32.545Z" transform="translate(-8 -80)"/></svg>