<svg xmlns="http://www.w3.org/2000/svg" width="30" height="30" viewBox="0 0 30 30"><path d="M15,0A15,15,0,1,0,30,15,15.017,15.017,0,0,0,15,0Zm0,28.594A13.594,13.594,0,1,1,28.594,15,13.609,13.609,0,0,1,15,28.594Zm7.845-10.865h0l-2.756-1.591a1.829,1.829,0,0,0-2.5.669,1.222,1.222,0,0,1-.765.63,1.1,1.1,0,0,1-.927-.208A17.926,17.926,0,0,1,12.772,14.1a1.1,1.1,0,0,1-.208-.927,1.222,1.222,0,0,1,.63-.766,1.829,1.829,0,0,0,.669-2.5L12.272,7.155a1.816,1.816,0,0,0-2.25-.787l-.033.013A9.541,9.541,0,0,0,7.311,7.693c-.723.723-1.456,2.069-.838,4.374,1.2,4.477,6.983,10.261,11.461,11.461a6.3,6.3,0,0,0,1.63.232,3.741,3.741,0,0,0,2.745-1.07,9.54,9.54,0,0,0,1.312-2.677l.013-.034A1.817,1.817,0,0,0,22.845,17.728Zm-.522,1.736-.013.034a13.271,13.271,0,0,1-1,2.2,2.955,2.955,0,0,1-3.016.474C14.285,21.095,8.905,15.715,7.83,11.7A2.955,2.955,0,0,1,8.3,8.688a13.25,13.25,0,0,1,2.2-1l.033-.013a.433.433,0,0,1,.159-.031.413.413,0,0,1,.359.212l1.591,2.756a.421.421,0,0,1-.154.575,2.589,2.589,0,0,0-1.3,1.7,2.5,2.5,0,0,0,.461,2.053,19.222,19.222,0,0,0,3.409,3.409,2.5,2.5,0,0,0,2.053.461,2.589,2.589,0,0,0,1.7-1.3.423.423,0,0,1,.575-.154l2.756,1.591a.413.413,0,0,1,.181.518Z"/></svg>