<svg xmlns="http://www.w3.org/2000/svg" width="19.96" height="20" viewBox="0 0 19.96 20"><path d="M19.96,14.974v3.011a2.007,2.007,0,0,1-2.188,2.007,19.861,19.861,0,0,1-8.661-3.081,19.57,19.57,0,0,1-6.022-6.022,19.861,19.861,0,0,1-3.081-8.7A2.007,2.007,0,0,1,2.005,0H5.016A2.007,2.007,0,0,1,7.023,1.726a12.886,12.886,0,0,0,.7,2.82,2.007,2.007,0,0,1-.452,2.118L6,7.939a16.058,16.058,0,0,0,6.022,6.022L13.3,12.686a2.007,2.007,0,0,1,2.118-.452,12.886,12.886,0,0,0,2.82.7A2.007,2.007,0,0,1,19.96,14.974Z" fill="#fff"/></svg>