<svg xmlns="http://www.w3.org/2000/svg" width="39.996" height="16" viewBox="0 0 39.996 16"><g transform="translate(0 -0.492)"><path d="M240,86.891h2.666v1.333H240Zm0,0" transform="translate(-223.335 -80.399)"/><path d="M39.424,4.5,34.9,3.852a22.853,22.853,0,0,0-2.566-1.36,22.448,22.448,0,0,0-9.287-2h-.787a22.659,22.659,0,0,0-10.82,2.759L9.152,4.5A15.751,15.751,0,0,0,1.529,6.564,3.043,3.043,0,0,0,0,9.2v3.958a.667.667,0,0,0,.667.667H2.9a3.985,3.985,0,0,0,7.521,0h17.81a3.985,3.985,0,0,0,7.521,0H36a.67.67,0,0,0,.248-.047L38.4,12.91A2.521,2.521,0,0,0,40,10.558v-5.4A.667.667,0,0,0,39.424,4.5ZM9.278,13.024a2.667,2.667,0,1,1,.054-.533A2.666,2.666,0,0,1,9.278,13.024Zm12.053-.533H10.666a4,4,0,1,0-8,0H1.333V9.2a1.705,1.705,0,0,1,.858-1.478,14.412,14.412,0,0,1,7.141-1.9h12Zm0-8H11.947l.129-.07a21.314,21.314,0,0,1,9.256-2.567Zm1.333-2.667h.377a21.1,21.1,0,0,1,7.843,1.5L29.721,4.492H22.664Zm11.945,11.2a2.667,2.667,0,1,1,.054-.533A2.666,2.666,0,0,1,34.609,13.024Zm4.054-6.533h-2V7.825h2v2.733a1.193,1.193,0,0,1-.755,1.114L36,12.439c0-.061-.008-.122-.012-.183s-.005-.133-.012-.2-.02-.133-.031-.2-.019-.133-.032-.194-.033-.128-.05-.191-.031-.127-.051-.189-.044-.121-.066-.182-.043-.123-.067-.183-.055-.114-.083-.171-.055-.119-.087-.176-.067-.106-.1-.159-.066-.114-.1-.169-.073-.1-.11-.147-.078-.107-.121-.159-.082-.091-.124-.133-.087-.1-.133-.145-.091-.084-.137-.125-.1-.09-.146-.133-.1-.077-.152-.115-.1-.079-.155-.114-.113-.066-.171-.1-.1-.067-.158-.1-.121-.059-.183-.088-.109-.055-.166-.079-.133-.049-.2-.073-.11-.043-.167-.061c-.076-.023-.154-.04-.231-.059-.051-.012-.1-.028-.151-.038-.082-.017-.166-.026-.249-.038-.049-.007-.1-.017-.146-.022A4.052,4.052,0,0,0,32,8.49a4,4,0,0,0-4,4H22.665V5.825H30a.666.666,0,0,0,.471-.2L32.2,3.9A21.376,21.376,0,0,1,34.31,5.057a.669.669,0,0,0,.259.095l4.094.585Zm0,0"/></g></svg>