<svg xmlns="http://www.w3.org/2000/svg" xmlns:xlink="http://www.w3.org/1999/xlink" width="320" height="200.46" viewBox="0 0 320 200.46"><defs><linearGradient id="a" x1="0.5" x2="0.5" y2="1" gradientUnits="objectBoundingBox"><stop offset="0" stop-color="#1488cc"/><stop offset="1" stop-color="#2b32b2"/></linearGradient></defs><g transform="translate(-24 -188.42)"><path d="M13,0H307a13,13,0,0,1,13,13V187.46a13,13,0,0,1-13,13H13a13,13,0,0,1-13-13V13A13,13,0,0,1,13,0Z" transform="translate(24 188.42)" fill="url(#a)"/><text transform="translate(50.667 294.937)" fill="#fff" font-size="19" font-family="SegoeUI-Semibold, Segoe UI" font-weight="600"><tspan x="0" y="0">4000 0000 0000 0002</tspan></text><text transform="translate(252.966 354.466)" fill="#fff" font-size="17" font-family="SegoeUI-Semibold, Segoe UI" font-weight="600"><tspan x="0" y="0">02/21</tspan></text><text transform="translate(52.506 354.466)" fill="#fff" font-size="16" font-family="SegoeUI-Semibold, Segoe UI" font-weight="600"><tspan x="0" y="0">Mu&apos;tasim Abdel-Baqi</tspan></text><text transform="translate(50.667 310.684)" fill="#fff" font-size="10" font-family="SegoeUI-Semibold, Segoe UI" font-weight="600" opacity="0.485"><tspan x="0" y="0">4000</tspan></text><g transform="translate(226.299 340.603)"><text transform="translate(9 6)" fill="#fff" font-size="6" font-family="SegoeUI-Bold, Segoe UI" font-weight="700" opacity="0.485"><tspan x="-8.651" y="0">VALID</tspan></text><text transform="translate(8.92 14.276)" fill="#fff" font-size="6" font-family="SegoeUI-Bold, Segoe UI" font-weight="700" opacity="0.485"><tspan x="-8.184" y="0">THRU</tspan></text></g><g transform="translate(248.004 212.264)"><g transform="translate(0 0)"><path d="M189.784,2.739h4.571L191.5,19.508h-4.569Z" transform="translate(-167.06 -2.577)" fill="snow"/><path d="M278.576,9.96a11.806,11.806,0,0,0-4.1-.7c-4.516,0-7.7,2.274-7.725,5.534-.025,2.41,2.271,3.754,4.005,4.556,1.779.822,2.377,1.346,2.369,2.08-.011,1.124-1.421,1.638-2.734,1.638a9.583,9.583,0,0,1-4.3-.88l-.589-.266-.641,3.754a14.47,14.47,0,0,0,5.092.895c4.8,0,7.924-2.248,7.959-5.729.017-1.908-1.2-3.359-3.838-4.556-1.6-.776-2.576-1.293-2.566-2.079,0-.7.828-1.442,2.618-1.442a8.432,8.432,0,0,1,3.421.642l.41.194.62-3.635" transform="translate(-237.541 -9.256)" fill="snow"/><path d="M397.149,12.146h-3.532a2.274,2.274,0,0,0-2.393,1.391L384.435,28.9h4.8s.785-2.066.962-2.52l5.854.007c.137.587.556,2.513.556,2.513h4.241l-3.7-16.759m-5.636,10.809c.378-.966,1.821-4.688,1.821-4.688-.027.045.375-.971.606-1.6l.309,1.446s.875,4,1.058,4.842h-3.794Z" transform="translate(-344.393 -11.838)" fill="snow"/><g transform="translate(0 0.293)"><path d="M56.142,2.854,51.667,14.29l-.477-2.324a13.087,13.087,0,0,0-6.33-7.034L48.952,19.6l4.836-.005,7.2-16.737H56.142" transform="translate(-40.087 -2.844)" fill="snow"/><path d="M7.429,2.757H.058L0,3.106c5.734,1.388,9.528,4.743,11.1,8.773L9.5,4.172A1.913,1.913,0,0,0,7.429,2.757" transform="translate(0 -2.757)" fill="snow"/></g><path d="M49.985,31.257a1.013,1.013,0,0,0-.555-.758l1.347.607" transform="translate(-45.032 -28.239)" fill="snow"/></g></g></g></svg>