<svg xmlns="http://www.w3.org/2000/svg" width="40" height="40" viewBox="0 0 40 40"><g transform="translate(-1 -1)"><path d="M45.684,1.11A.645.645,0,0,0,45.323,1H15.645A.645.645,0,0,0,15,1.645v12.9h1.29V2.29H41.974L28.955,7.5a.645.645,0,0,0-.406.6V37.774H16.29V27.452H15V38.419a.645.645,0,0,0,.645.645h12.9v1.29a.643.643,0,0,0,.645.645.606.606,0,0,0,.239-.045L45.561,34.5a.645.645,0,0,0,.406-.6V1.645a.645.645,0,0,0-.284-.535ZM44.677,33.464,29.839,39.4V8.535L44.677,2.6Z" transform="translate(-4.968 0)"/><path d="M41.935,32.871A1.935,1.935,0,1,0,40,30.935,1.935,1.935,0,0,0,41.935,32.871Zm0-2.581a.645.645,0,1,1-.645.645A.645.645,0,0,1,41.935,30.29Z" transform="translate(-13.839 -9.936)"/><path d="M1.645,32.389H13.258v1.29a.64.64,0,0,0,.968.555l7.742-4.516a.645.645,0,0,0,0-1.11l-7.742-4.516a.645.645,0,0,0-.968.555v1.29H1.645A.645.645,0,0,0,1,26.583v5.161A.645.645,0,0,0,1.645,32.389Zm.645-5.161H13.9a.645.645,0,0,0,.645-.645V25.77l5.806,3.394-5.806,3.394v-.813A.645.645,0,0,0,13.9,31.1H2.29Z" transform="translate(0 -8.163)"/></g></svg>