<svg xmlns="http://www.w3.org/2000/svg" width="42.253" height="40" viewBox="0 0 42.253 40"><g transform="translate(0 -8.601)"><g transform="translate(0 8.601)"><g transform="translate(0 0)"><path d="M150.754,90.92a.859.859,0,0,0-.576-.367c-1.205,0-11.58-.419-11.58-12.471a.681.681,0,1,0-1.362,0c0,12.052-10.375,12.471-11.528,12.471a.6.6,0,0,0-.419.157c-.1.052-.157.157-.21.21a.777.777,0,0,0,0,.681.727.727,0,0,0,.629.367h.052c1.205,0,11.528.419,11.528,12.471a.681.681,0,1,0,1.362,0c0-12,10.322-12.471,11.528-12.471a.8.8,0,0,0,.629-.367A.644.644,0,0,0,150.754,90.92ZM137.916,99.3a11.96,11.96,0,0,0-8.174-8.069,11.96,11.96,0,0,0,8.174-8.069,11.96,11.96,0,0,0,8.174,8.069A11.96,11.96,0,0,0,137.916,99.3Z" transform="translate(-108.626 -68.389)"/><path d="M60.619,17.509a.706.706,0,0,0,.681-.734.694.694,0,0,0-.681-.681c-.629,0-6.288-.21-6.288-6.812a.681.681,0,1,0-1.362,0c0,6.6-5.659,6.812-6.288,6.812h-.052a.684.684,0,0,0-.629.681.694.694,0,0,0,.681.681c.681,0,6.288.21,6.288,6.812a.694.694,0,0,0,.681.681.6.6,0,0,0,.629-.629c0-6.6,5.659-6.812,6.288-6.812h.052ZM53.6,20.5a7.027,7.027,0,0,0-3.773-3.72,7.05,7.05,0,0,0,3.773-3.72,7.027,7.027,0,0,0,3.773,3.72A7.05,7.05,0,0,0,53.6,20.5Z" transform="translate(-39.974 -8.601)"/><path d="M14.619,196.494c-.629,0-6.288-.21-6.288-6.812a.681.681,0,0,0-1.362,0c0,6.6-5.659,6.812-6.288,6.812H.629a.684.684,0,0,0-.629.681.694.694,0,0,0,.681.681c.681,0,6.288.21,6.288,6.812a.694.694,0,0,0,.681.681c.314.1.629-.21.629-.629,0-6.6,5.659-6.812,6.288-6.812h.052a.706.706,0,0,0,.681-.734A.694.694,0,0,0,14.619,196.494ZM7.6,200.948a7.2,7.2,0,0,0-3.773-3.72,7.05,7.05,0,0,0,3.773-3.72,7.027,7.027,0,0,0,3.773,3.72A7.05,7.05,0,0,0,7.6,200.948Z" transform="translate(0 -165.37)"/></g></g></g></svg>