<svg xmlns="http://www.w3.org/2000/svg" width="13.5" height="10.227" viewBox="0 0 13.5 10.227"><g transform="translate(-0.75 -5.25)"><path d="M7.5,15.477C3.267,15.477.927,10.894.829,10.7a.75.75,0,0,1,0-.671c.1-.2,2.438-4.778,6.671-4.778s6.573,4.583,6.671,4.778a.75.75,0,0,1,0,.671C14.073,10.894,11.733,15.477,7.5,15.477ZM2.36,10.363c.573.953,2.417,3.615,5.14,3.615s4.569-2.657,5.14-3.613C12.067,9.411,10.223,6.75,7.5,6.75S2.931,9.407,2.36,10.363Z" fill="#003aa8"/><path d="M15.136,17.523a2.386,2.386,0,1,1,2.386-2.386A2.389,2.389,0,0,1,15.136,17.523Zm0-3.273a.886.886,0,1,0,.886.886A.887.887,0,0,0,15.136,14.25Z" transform="translate(-7.636 -4.773)" fill="#003aa8"/></g></svg>