<svg xmlns="http://www.w3.org/2000/svg" width="22" height="22" viewBox="0 0 22 22"><g transform="translate(-8.5 -8.5)"><g transform="translate(8.5 8.5)"><path d="M12.616,14.664v-5.1a1.065,1.065,0,1,0-2.129,0v5.1a3.036,3.036,0,0,0,0,5.7v9.073a1.065,1.065,0,1,0,2.129,0V20.362a3.036,3.036,0,0,0,0-5.7Z" transform="translate(-8.5 -8.5)"/><path d="M23.816,19.3V9.565a1.065,1.065,0,1,0-2.129,0V19.3a3.036,3.036,0,0,0,0,5.7v4.437a1.065,1.065,0,1,0,2.129,0V25a3.036,3.036,0,0,0,0-5.7Z" transform="translate(-11.752 -8.5)"/><path d="M35.016,14.664v-5.1a1.065,1.065,0,1,0-2.129,0v5.1a3.036,3.036,0,0,0,0,5.7v9.073a1.065,1.065,0,1,0,2.129,0V20.362a3.036,3.036,0,0,0,0-5.7Z" transform="translate(-15.003 -8.5)"/></g></g></svg>