<svg xmlns="http://www.w3.org/2000/svg" width="28" height="28" viewBox="0 0 28 28"><path d="M14,28A14,14,0,1,0,0,14,14,14,0,0,0,14,28Z" fill="#f0f0f0"/><path d="M33.739,14.4A14,14,0,0,0,25.826,1.786V27.008A14,14,0,0,0,33.739,14.4Z" transform="translate(-5.739 -0.397)" fill="#d80027"/><path d="M7.913,27.008a14.005,14.005,0,0,1,0-25.222ZM14,18.049A3.652,3.652,0,0,1,10.348,14.4h-.006V13.18h7.311V14.4A3.652,3.652,0,0,1,14,18.049Z" transform="translate(0 -0.397)" fill="#6da544" fill-rule="evenodd"/><path d="M21.478,14.522H17.825a1.217,1.217,0,0,0-2.434,0H11.74A1.253,1.253,0,0,0,13,15.739h-.04a1.217,1.217,0,0,0,1.217,1.217,1.217,1.217,0,0,0,1.217,1.217h2.434a1.217,1.217,0,0,0,1.217-1.217,1.217,1.217,0,0,0,1.217-1.217h-.04A1.252,1.252,0,0,0,21.478,14.522Z" transform="translate(-2.609 -2.957)" fill="#ff9811"/></svg>