<svg xmlns="http://www.w3.org/2000/svg" width="320.095" height="266.775" viewBox="0 0 320.095 266.775">
  <g id="Group_2861" data-name="Group 2861" transform="translate(-59.872 -91.896)">
    <g id="House" transform="translate(193.02 150.864)">
      <g id="Group_2854" data-name="Group 2854" transform="translate(0 0)">
        <path id="Path_25235" data-name="Path 25235" d="M441.092,285.82l7.961,21.351h-5.428L438.2,290.525Z" transform="translate(-262.55 -187.304)" fill="#fff" stroke="#263238" stroke-linecap="round" stroke-linejoin="round" stroke-width="0.888"/>
        <path id="Path_25236" data-name="Path 25236" d="M430.92,339.852H359.146V303.181L425.783,293l5.137,14.158Z" transform="translate(-248.035 -188.622)" fill="#263238"/>
        <rect id="Rectangle_642" data-name="Rectangle 642" width="93.607" height="110.978" transform="translate(27.396 40.252)" fill="#263238"/>
        <g id="Group_2835" data-name="Group 2835" transform="translate(17.648)">
          <path id="Path_25237" data-name="Path 25237" d="M248.643,214.367l-3.981-5.156,57.07-44.064,56.031,43.263-3.981,5.156-52.051-40.19Z" transform="translate(-244.663 -165.147)" fill="#263238"/>
        </g>
        <g id="Group_2836" data-name="Group 2836" transform="translate(10.266 4.115)">
          <rect id="Rectangle_643" data-name="Rectangle 643" width="93.607" height="110.978" transform="translate(0 36.138)" fill="#fff" stroke="#263238" stroke-linecap="round" stroke-linejoin="round" stroke-width="0.888"/>
          <path id="Path_25238" data-name="Path 25238" d="M282.424,170.187l-46.8,36.138h93.607Z" transform="translate(-235.62 -170.187)" fill="#fff" stroke="#263238" stroke-linejoin="round" stroke-width="0.888"/>
          <path id="Path_25239" data-name="Path 25239" d="M282.424,170.187l-46.8,36.138v8.229l10.658-8.229,36.146-27.909,36.145,27.909,10.658,8.229v-8.229Z" transform="translate(-235.62 -170.187)" fill="#c6ff00" style="mix-blend-mode: multiply;isolation: isolate"/>
        </g>
        <rect id="Rectangle_644" data-name="Rectangle 644" width="71.774" height="36.671" transform="translate(103.874 114.559)" fill="#fff" stroke="#263238" stroke-linecap="round" stroke-linejoin="round" stroke-width="0.888"/>
        <g id="Group_2837" data-name="Group 2837" transform="translate(103.874 114.559)">
          <rect id="Rectangle_645" data-name="Rectangle 645" width="57.298" height="36.671" transform="translate(7.238)" fill="#c6ff00" stroke="#263238" stroke-linecap="round" stroke-linejoin="round" stroke-width="0.888"/>
          <rect id="Rectangle_646" data-name="Rectangle 646" width="71.774" height="7.86" fill="#c6ff00" style="mix-blend-mode: multiply;isolation: isolate"/>
          <line id="Line_63" data-name="Line 63" x2="57.298" transform="translate(7.238 10.736)" fill="none" stroke="#263238" stroke-linecap="round" stroke-linejoin="round" stroke-width="0.888"/>
          <line id="Line_64" data-name="Line 64" x2="57.298" transform="translate(7.238 16.164)" fill="none" stroke="#263238" stroke-linecap="round" stroke-linejoin="round" stroke-width="0.888"/>
          <line id="Line_65" data-name="Line 65" x2="57.298" transform="translate(7.238 21.592)" fill="none" stroke="#263238" stroke-linecap="round" stroke-linejoin="round" stroke-width="0.888"/>
          <line id="Line_66" data-name="Line 66" x2="57.298" transform="translate(7.238 27.021)" fill="none" stroke="#263238" stroke-linecap="round" stroke-linejoin="round" stroke-width="0.888"/>
          <line id="Line_67" data-name="Line 67" x2="57.298" transform="translate(7.238 32.449)" fill="none" stroke="#263238" stroke-linecap="round" stroke-linejoin="round" stroke-width="0.888"/>
        </g>
        <rect id="Rectangle_647" data-name="Rectangle 647" width="18.818" height="41.013" transform="translate(17.987 110.217)" fill="#263238"/>
        <g id="Group_2842" data-name="Group 2842" transform="translate(46.696 110.217)">
          <g id="Group_2839" data-name="Group 2839">
            <rect id="Rectangle_648" data-name="Rectangle 648" width="18.818" height="28.468" fill="#fff" stroke="#263238" stroke-linecap="round" stroke-linejoin="round" stroke-width="0.888"/>
            <g id="Group_2838" data-name="Group 2838">
              <rect id="Rectangle_649" data-name="Rectangle 649" width="18.818" height="2.413" transform="translate(0 13.028)" fill="#263238"/>
              <rect id="Rectangle_650" data-name="Rectangle 650" width="2.413" height="28.468" transform="translate(8.203)" fill="#263238"/>
            </g>
          </g>
          <g id="Group_2841" data-name="Group 2841" transform="translate(34.5)">
            <rect id="Rectangle_651" data-name="Rectangle 651" width="18.818" height="28.468" fill="#fff" stroke="#263238" stroke-linecap="round" stroke-linejoin="round" stroke-width="0.888"/>
            <g id="Group_2840" data-name="Group 2840">
              <rect id="Rectangle_652" data-name="Rectangle 652" width="18.818" height="2.413" transform="translate(0 13.028)" fill="#263238"/>
              <rect id="Rectangle_653" data-name="Rectangle 653" width="2.413" height="28.468" transform="translate(8.203)" fill="#263238"/>
            </g>
          </g>
        </g>
        <rect id="Rectangle_654" data-name="Rectangle 654" width="3.607" height="41.013" transform="translate(72.154 110.217)" fill="#fff" stroke="#263238" stroke-linecap="round" stroke-linejoin="round" stroke-width="0.888"/>
        <rect id="Rectangle_655" data-name="Rectangle 655" width="3.607" height="41.013" transform="translate(40.608 110.217)" fill="#fff" stroke="#263238" stroke-linecap="round" stroke-linejoin="round" stroke-width="0.888"/>
        <rect id="Rectangle_656" data-name="Rectangle 656" width="85.405" height="5.308" transform="translate(14.609 111.905)" fill="#263238"/>
        <rect id="Rectangle_657" data-name="Rectangle 657" width="85.405" height="5.308" transform="translate(14.609 109.252)" fill="#c6ff00" stroke="#263238" stroke-linecap="round" stroke-linejoin="round" stroke-width="0.888"/>
        <g id="Group_2843" data-name="Group 2843">
          <path id="Path_25240" data-name="Path 25240" d="M227.026,214.367l-3.981-5.156,57.07-44.064,56.031,43.263-3.981,5.156-52.05-40.19Z" transform="translate(-223.045 -165.147)" fill="#fff" stroke="#263238" stroke-linejoin="round" stroke-width="0.888"/>
        </g>
        <path id="Path_25241" data-name="Path 25241" d="M420.45,307.171H341.543l7.238-21.351h74.565Z" transform="translate(-244.803 -187.304)" fill="#263238"/>
        <path id="Path_25242" data-name="Path 25242" d="M348.982,208.41h16.157L310.6,165.147H292.951Z" transform="translate(-235.881 -165.147)" fill="#263238"/>
        <path id="Path_25243" data-name="Path 25243" d="M356.708,223.3h17.648l3.981-5.156H360.689Z" transform="translate(-247.587 -174.877)" fill="#263238"/>
        <g id="Group_2853" data-name="Group 2853" transform="translate(15.314 45.195)">
          <rect id="Rectangle_658" data-name="Rectangle 658" width="10.133" height="16.405" transform="translate(2.673 11.463)" fill="#fff" stroke="#263238" stroke-linecap="round" stroke-linejoin="round" stroke-width="0.888"/>
          <rect id="Rectangle_659" data-name="Rectangle 659" width="10.133" height="8.203" transform="translate(2.673 19.666)" fill="#263238"/>
          <rect id="Rectangle_660" data-name="Rectangle 660" width="10.133" height="1.829" transform="translate(2.673 18.751)" fill="#fff" stroke="#263238" stroke-linecap="round" stroke-linejoin="round" stroke-width="0.888"/>
          <rect id="Rectangle_661" data-name="Rectangle 661" width="10.133" height="16.405" transform="translate(2.673 35.106)" fill="#fff" stroke="#263238" stroke-linecap="round" stroke-linejoin="round" stroke-width="0.888"/>
          <rect id="Rectangle_662" data-name="Rectangle 662" width="10.133" height="8.278" transform="translate(2.673 43.233)" fill="#263238"/>
          <rect id="Rectangle_663" data-name="Rectangle 663" width="10.133" height="16.405" transform="translate(71.189 11.463)" fill="#fff" stroke="#263238" stroke-linecap="round" stroke-linejoin="round" stroke-width="0.888"/>
          <rect id="Rectangle_664" data-name="Rectangle 664" width="10.133" height="8.203" transform="translate(71.189 19.666)" fill="#263238"/>
          <rect id="Rectangle_665" data-name="Rectangle 665" width="10.133" height="16.405" transform="translate(71.189 35.106)" fill="#fff" stroke="#263238" stroke-linecap="round" stroke-linejoin="round" stroke-width="0.888"/>
          <rect id="Rectangle_666" data-name="Rectangle 666" width="10.133" height="9.193" transform="translate(71.189 42.319)" fill="#263238"/>
          <rect id="Rectangle_667" data-name="Rectangle 667" width="10.133" height="16.405" transform="translate(35.725 11.463)" fill="#fff" stroke="#263238" stroke-linecap="round" stroke-linejoin="round" stroke-width="0.888"/>
          <rect id="Rectangle_668" data-name="Rectangle 668" width="10.133" height="8.203" transform="translate(35.725 19.666)" fill="#263238"/>
          <rect id="Rectangle_669" data-name="Rectangle 669" width="10.133" height="16.405" transform="translate(35.725 35.106)" fill="#fff" stroke="#263238" stroke-linecap="round" stroke-linejoin="round" stroke-width="0.888"/>
          <rect id="Rectangle_670" data-name="Rectangle 670" width="10.133" height="9.193" transform="translate(35.725 42.319)" fill="#263238"/>
          <rect id="Rectangle_671" data-name="Rectangle 671" width="10.133" height="1.829" transform="translate(35.725 18.751)" fill="#fff" stroke="#263238" stroke-linecap="round" stroke-linejoin="round" stroke-width="0.888"/>
          <rect id="Rectangle_672" data-name="Rectangle 672" width="10.133" height="1.829" transform="translate(71.189 18.751)" fill="#fff" stroke="#263238" stroke-linecap="round" stroke-linejoin="round" stroke-width="0.888"/>
          <rect id="Rectangle_673" data-name="Rectangle 673" width="10.133" height="1.829" transform="translate(2.673 41.404)" fill="#fff" stroke="#263238" stroke-linecap="round" stroke-linejoin="round" stroke-width="0.888"/>
          <rect id="Rectangle_674" data-name="Rectangle 674" width="10.133" height="1.829" transform="translate(35.725 41.404)" fill="#fff" stroke="#263238" stroke-linecap="round" stroke-linejoin="round" stroke-width="0.888"/>
          <rect id="Rectangle_675" data-name="Rectangle 675" width="10.133" height="1.829" transform="translate(71.189 41.404)" fill="#fff" stroke="#263238" stroke-linecap="round" stroke-linejoin="round" stroke-width="0.888"/>
          <g id="Group_2852" data-name="Group 2852">
            <g id="Group_2844" data-name="Group 2844">
              <line id="Line_68" data-name="Line 68" y2="4.026" transform="translate(3.207)" fill="none" stroke="#263238" stroke-linecap="round" stroke-linejoin="round" stroke-width="0.888"/>
              <line id="Line_69" data-name="Line 69" y2="4.026" transform="translate(10.445)" fill="none" stroke="#263238" stroke-linecap="round" stroke-linejoin="round" stroke-width="0.888"/>
              <line id="Line_70" data-name="Line 70" y2="4.026" transform="translate(6.315 4.026)" fill="none" stroke="#263238" stroke-linecap="round" stroke-linejoin="round" stroke-width="0.888"/>
              <line id="Line_71" data-name="Line 71" y2="4.026" transform="translate(14.584 4.026)" fill="none" stroke="#263238" stroke-linecap="round" stroke-linejoin="round" stroke-width="0.888"/>
              <line id="Line_72" data-name="Line 72" x2="16.538" transform="translate(0 4.026)" fill="none" stroke="#263238" stroke-linecap="round" stroke-linejoin="round" stroke-width="0.888"/>
            </g>
            <g id="Group_2845" data-name="Group 2845" transform="translate(0 53.759)">
              <line id="Line_73" data-name="Line 73" y2="4.026" transform="translate(3.207)" fill="none" stroke="#263238" stroke-linecap="round" stroke-linejoin="round" stroke-width="0.888"/>
              <line id="Line_74" data-name="Line 74" y2="4.026" transform="translate(10.445)" fill="none" stroke="#263238" stroke-linecap="round" stroke-linejoin="round" stroke-width="0.888"/>
              <line id="Line_75" data-name="Line 75" y2="4.026" transform="translate(6.315 4.026)" fill="none" stroke="#263238" stroke-linecap="round" stroke-linejoin="round" stroke-width="0.888"/>
              <line id="Line_76" data-name="Line 76" y2="4.026" transform="translate(14.584 4.026)" fill="none" stroke="#263238" stroke-linecap="round" stroke-linejoin="round" stroke-width="0.888"/>
              <line id="Line_77" data-name="Line 77" x2="16.538" transform="translate(0 4.026)" fill="none" stroke="#263238" stroke-linecap="round" stroke-linejoin="round" stroke-width="0.888"/>
            </g>
            <g id="Group_2848" data-name="Group 2848" transform="translate(14.669 15.64)">
              <g id="Group_2846" data-name="Group 2846">
                <line id="Line_78" data-name="Line 78" y2="4.026" transform="translate(3.207)" fill="none" stroke="#263238" stroke-linecap="round" stroke-linejoin="round" stroke-width="0.888"/>
                <line id="Line_79" data-name="Line 79" y2="4.026" transform="translate(10.445)" fill="none" stroke="#263238" stroke-linecap="round" stroke-linejoin="round" stroke-width="0.888"/>
                <line id="Line_80" data-name="Line 80" y2="4.026" transform="translate(6.315 4.026)" fill="none" stroke="#263238" stroke-linecap="round" stroke-linejoin="round" stroke-width="0.888"/>
                <line id="Line_81" data-name="Line 81" y2="4.026" transform="translate(14.584 4.026)" fill="none" stroke="#263238" stroke-linecap="round" stroke-linejoin="round" stroke-width="0.888"/>
                <line id="Line_82" data-name="Line 82" x2="16.538" transform="translate(0 4.026)" fill="none" stroke="#263238" stroke-linecap="round" stroke-linejoin="round" stroke-width="0.888"/>
                <line id="Line_83" data-name="Line 83" x2="13.331" transform="translate(3.207 8.051)" fill="none" stroke="#263238" stroke-linecap="round" stroke-linejoin="round" stroke-width="0.888"/>
              </g>
              <g id="Group_2847" data-name="Group 2847" transform="translate(0 8.203)">
                <line id="Line_84" data-name="Line 84" y2="4.026" transform="translate(3.207)" fill="none" stroke="#263238" stroke-linecap="round" stroke-linejoin="round" stroke-width="0.888"/>
                <line id="Line_85" data-name="Line 85" y2="4.026" transform="translate(10.445)" fill="none" stroke="#263238" stroke-linecap="round" stroke-linejoin="round" stroke-width="0.888"/>
                <line id="Line_86" data-name="Line 86" y2="4.026" transform="translate(6.315 4.026)" fill="none" stroke="#263238" stroke-linecap="round" stroke-linejoin="round" stroke-width="0.888"/>
                <line id="Line_87" data-name="Line 87" y2="4.026" transform="translate(14.584 4.026)" fill="none" stroke="#263238" stroke-linecap="round" stroke-linejoin="round" stroke-width="0.888"/>
                <line id="Line_88" data-name="Line 88" x2="16.538" transform="translate(0 4.026)" fill="none" stroke="#263238" stroke-linecap="round" stroke-linejoin="round" stroke-width="0.888"/>
              </g>
            </g>
            <g id="Group_2851" data-name="Group 2851" transform="translate(50.737 42.495)">
              <g id="Group_2849" data-name="Group 2849">
                <line id="Line_89" data-name="Line 89" y2="4.026" transform="translate(3.207)" fill="none" stroke="#263238" stroke-linecap="round" stroke-linejoin="round" stroke-width="0.888"/>
                <line id="Line_90" data-name="Line 90" y2="4.026" transform="translate(10.445)" fill="none" stroke="#263238" stroke-linecap="round" stroke-linejoin="round" stroke-width="0.888"/>
                <line id="Line_91" data-name="Line 91" y2="4.026" transform="translate(6.315 4.026)" fill="none" stroke="#263238" stroke-linecap="round" stroke-linejoin="round" stroke-width="0.888"/>
                <line id="Line_92" data-name="Line 92" y2="4.026" transform="translate(14.584 4.026)" fill="none" stroke="#263238" stroke-linecap="round" stroke-linejoin="round" stroke-width="0.888"/>
                <line id="Line_93" data-name="Line 93" x2="16.538" transform="translate(0 4.026)" fill="none" stroke="#263238" stroke-linecap="round" stroke-linejoin="round" stroke-width="0.888"/>
                <line id="Line_94" data-name="Line 94" x2="13.331" transform="translate(3.207 8.051)" fill="none" stroke="#263238" stroke-linecap="round" stroke-linejoin="round" stroke-width="0.888"/>
              </g>
              <g id="Group_2850" data-name="Group 2850" transform="translate(0 8.203)">
                <line id="Line_95" data-name="Line 95" y2="4.026" transform="translate(3.207)" fill="none" stroke="#263238" stroke-linecap="round" stroke-linejoin="round" stroke-width="0.888"/>
                <line id="Line_96" data-name="Line 96" y2="4.026" transform="translate(10.445)" fill="none" stroke="#263238" stroke-linecap="round" stroke-linejoin="round" stroke-width="0.888"/>
                <line id="Line_97" data-name="Line 97" y2="4.026" transform="translate(6.315 4.026)" fill="none" stroke="#263238" stroke-linecap="round" stroke-linejoin="round" stroke-width="0.888"/>
                <line id="Line_98" data-name="Line 98" y2="4.026" transform="translate(14.584 4.026)" fill="none" stroke="#263238" stroke-linecap="round" stroke-linejoin="round" stroke-width="0.888"/>
                <line id="Line_99" data-name="Line 99" x2="16.538" transform="translate(0 4.026)" fill="none" stroke="#263238" stroke-linecap="round" stroke-linejoin="round" stroke-width="0.888"/>
              </g>
            </g>
          </g>
        </g>
      </g>
    </g>
    <g id="Ground" transform="translate(62.03 277.363)">
      <g id="Group_2857" data-name="Group 2857">
        <g id="Group_2855" data-name="Group 2855" transform="translate(0.493)">
          <path id="Path_25244" data-name="Path 25244" d="M68.649,356.2c16.046,6.635,57.293-.553,53.026,7.187s-36.539,4.837-45.714,13.2,32.6,7.7,31.126,10.242c-1.452,2.5-38.244,4.274-35.821,7.7H318.993c.4-2.677-2.473-5.929-7.1-8.139C275.005,384.881,150.015,379.34,163.114,374c15.346-6.258,65.457-12.51,74.617-17.408s-31.417-5.442-38.208-7.619c-2.192-.7-2.425-1.383-1.743-1.983l1.171.076v-.744a32.27,32.27,0,0,1,5.737-1.494h-5.737v-1.415l-.811.521-1.393.894H196.3a26.927,26.927,0,0,0,1.155-5.438c.32-3.195-4.162,4.023-4.162,4.023a7.828,7.828,0,0,0,0-4.023c-.64-1.594-2.561,2.128-2.561,2.128s2.241-8.857,0-14.612-4.778,14.612-4.778,14.612-.343-7.9-3.224-8.055c-2.335-.127-.886,5.24-.252,7.281a8.844,8.844,0,0,0-2.136-3.017c-2.069-1.976,0,4.563,0,4.563s-.812-1.947-6.214-2.9,2.2,4.23,2.2,4.23a68.422,68.422,0,0,0-7.113-1.628c-1.189-.2-1.288.1-.892.589l-.775.5-2.5,1.607a33.669,33.669,0,0,0,1.63-7.392c.407-4.066-5.3,5.121-5.3,5.121s.816-3.092,0-5.121-3.26,2.709-3.26,2.709,2.852-11.276,0-18.6-6.084,18.6-6.084,18.6-.437-10.053-4.1-10.253c-2.963-.162-1.14,6.623-.33,9.24a11.332,11.332,0,0,0-2.711-3.812c-2.634-2.515,0,5.809,0,5.809s-1.034-2.479-7.911-3.693,2.8,5.384,2.8,5.384a87.053,87.053,0,0,0-9.055-2.072c-4.572-.754,3.479,4.222,3.479,4.222H73.525S52.6,349.569,68.649,356.2Zm99.93-13.346a20.288,20.288,0,0,0,2.619,1.971H168.58Z" transform="translate(-62.594 -320.096)" fill="#d6d6d6"/>
          <path id="Path_25245" data-name="Path 25245" d="M302.345,362.747c-9.274,4.3-32.286,8.807-32.286,8.807-3.666.494,1.292,5.191,26.754,2.861l43.555-24.025H256.875c2.794,1.439,22.684,4.747,34,4.747S311.619,358.446,302.345,362.747Z" transform="translate(-98.267 -325.659)" fill="#d6d6d6"/>
          <path id="Path_25246" data-name="Path 25246" d="M394.263,350.358h16.453C402.461,350.038,394.263,350.358,394.263,350.358Z" transform="translate(-123.493 -325.627)" fill="#d6d6d6"/>
          <path id="Path_25247" data-name="Path 25247" d="M418.724,351.56l-39.1,25.191c4.958-.184,10.138-.31,15.164-.431,21.654-.518,13.79-9.917,15.265-13.234s13.761-2.764,14.744-8.293C425.081,353.225,422.526,352.21,418.724,351.56Z" transform="translate(-120.806 -325.873)" fill="#d6d6d6"/>
        </g>
        <g id="Group_2856" data-name="Group 2856" transform="translate(-108.507)" opacity="0.3">
          <path id="Path_25248" data-name="Path 25248" d="M68.649,356.2c16.046,6.635,57.293-.553,53.026,7.187s-36.539,4.837-45.714,13.2,32.6,7.7,31.126,10.242c-1.452,2.5-38.244,4.274-35.821,7.7H318.993c.4-2.677-2.473-5.929-7.1-8.139C275.005,384.881,150.015,379.34,163.114,374c15.346-6.258,65.457-12.51,74.617-17.408s-31.417-5.442-38.208-7.619c-2.192-.7-2.425-1.383-1.743-1.983l1.171.076v-.744a32.27,32.27,0,0,1,5.737-1.494h-5.737v-1.415l-.811.521-1.393.894H196.3a26.927,26.927,0,0,0,1.155-5.438c.32-3.195-4.162,4.023-4.162,4.023a7.828,7.828,0,0,0,0-4.023c-.64-1.594-2.561,2.128-2.561,2.128s2.241-8.857,0-14.612-4.778,14.612-4.778,14.612-.343-7.9-3.224-8.055c-2.335-.127-.886,5.24-.252,7.281a8.844,8.844,0,0,0-2.136-3.017c-2.069-1.976,0,4.563,0,4.563s-.812-1.947-6.214-2.9,2.2,4.23,2.2,4.23a68.422,68.422,0,0,0-7.113-1.628c-1.189-.2-1.288.1-.892.589l-.775.5-2.5,1.607a33.669,33.669,0,0,0,1.63-7.392c.407-4.066-5.3,5.121-5.3,5.121s.816-3.092,0-5.121-3.26,2.709-3.26,2.709,2.852-11.276,0-18.6-6.084,18.6-6.084,18.6-.437-10.053-4.1-10.253c-2.963-.162-1.14,6.623-.33,9.24a11.332,11.332,0,0,0-2.711-3.812c-2.634-2.515,0,5.809,0,5.809s-1.034-2.479-7.911-3.693,2.8,5.384,2.8,5.384a87.053,87.053,0,0,0-9.055-2.072c-4.572-.754,3.479,4.222,3.479,4.222H73.525S52.6,349.569,68.649,356.2Zm99.93-13.346a20.288,20.288,0,0,0,2.619,1.971H168.58Z" transform="translate(46.406 -320.096)" fill="#fff"/>
          <path id="Path_25249" data-name="Path 25249" d="M302.345,362.747c-9.274,4.3-32.286,8.807-32.286,8.807-3.666.494,1.292,5.191,26.754,2.861l43.555-24.025H256.875c2.794,1.439,22.684,4.747,34,4.747S311.619,358.446,302.345,362.747Z" transform="translate(-98.267 -325.659)" fill="#fff"/>
          <path id="Path_25250" data-name="Path 25250" d="M394.263,350.358h16.453C402.461,350.038,394.263,350.358,394.263,350.358Z" transform="translate(-123.493 -325.627)" fill="#fff"/>
        </g>
      </g>
    </g>
    <g id="Sign" transform="translate(60.338 92.34)">
      <g id="Group_2860" data-name="Group 2860">
        <path id="Path_25252" data-name="Path 25252" d="M134.311,182.2v65.855H230.1V182.2Zm8.9,8.09a2.645,2.645,0,1,1,2.644-2.645A2.646,2.646,0,0,1,143.212,190.288Zm77.9,0a2.645,2.645,0,1,1,2.645-2.645A2.645,2.645,0,0,1,221.112,190.288Z" transform="translate(-74.07 -109.753)" fill="#c6ff00" stroke="#263238" stroke-width="1"/>
        <path id="Path_25253" data-name="Path 25253" d="M224.377,188.273a2.645,2.645,0,1,1-2.645-2.645h-77.9a2.645,2.645,0,1,1-2.645,2.645,2.645,2.645,0,0,1,2.645-2.645h-6.144v59.418h89.359V185.628h-5.315A2.645,2.645,0,0,1,224.377,188.273Z" transform="translate(-74.69 -110.383)" fill="#263238"/>
        <g id="Group_2858" data-name="Group 2858" transform="translate(65.296 46.997)">
          <path id="Path_25254" data-name="Path 25254" d="M144.349,151.027a3.846,3.846,0,1,0,3.847,3.847A3.847,3.847,0,0,0,144.349,151.027Zm0,6.411a2.565,2.565,0,1,1,2.564-2.564A2.565,2.565,0,0,1,144.349,157.438Z" transform="translate(-140.502 -151.027)" fill="#fff" stroke="#263238" stroke-linecap="round" stroke-linejoin="round" stroke-width="0.917"/>
          <path id="Path_25255" data-name="Path 25255" d="M144.349,162.313a3.846,3.846,0,1,0,3.847,3.847A3.847,3.847,0,0,0,144.349,162.313Zm0,6.411a2.564,2.564,0,1,1,2.564-2.564A2.564,2.564,0,0,1,144.349,168.724Z" transform="translate(-140.502 -153.099)" fill="#fff" stroke="#263238" stroke-linecap="round" stroke-linejoin="round" stroke-width="0.917"/>
          <path id="Path_25256" data-name="Path 25256" d="M144.349,172.278a3.846,3.846,0,1,0,3.847,3.846A3.846,3.846,0,0,0,144.349,172.278Zm0,6.41a2.564,2.564,0,1,1,2.564-2.564A2.564,2.564,0,0,1,144.349,178.688Z" transform="translate(-140.502 -154.929)" fill="#fff" stroke="#263238" stroke-linecap="round" stroke-linejoin="round" stroke-width="0.917"/>
          <path id="Path_25257" data-name="Path 25257" d="M145.061,164.781h0a.68.68,0,0,1-.68-.68v-6.343a.68.68,0,0,1,.68-.68h0a.679.679,0,0,1,.679.68V164.1A.679.679,0,0,1,145.061,164.781Z" transform="translate(-141.214 -152.138)" fill="#fff" stroke="#263238" stroke-linecap="round" stroke-linejoin="round" stroke-width="0.917"/>
          <path id="Path_25258" data-name="Path 25258" d="M145.061,175.47h0a.679.679,0,0,1-.68-.679v-6.344a.68.68,0,0,1,.68-.68h0a.679.679,0,0,1,.679.68v6.344A.679.679,0,0,1,145.061,175.47Z" transform="translate(-141.214 -154.101)" fill="#fff" stroke="#263238" stroke-linecap="round" stroke-linejoin="round" stroke-width="0.917"/>
          <path id="Path_25259" data-name="Path 25259" d="M145.061,186.179h0a.68.68,0,0,1-.68-.68v-6.344a.679.679,0,0,1,.68-.679h0a.679.679,0,0,1,.679.679V185.5A.679.679,0,0,1,145.061,186.179Z" transform="translate(-141.214 -156.067)" fill="#fff" stroke="#263238" stroke-linecap="round" stroke-linejoin="round" stroke-width="0.917"/>
        </g>
        <g id="Group_2859" data-name="Group 2859" transform="translate(143.196 46.997)">
          <path id="Path_25260" data-name="Path 25260" d="M239.769,151.027a3.846,3.846,0,1,0,3.847,3.847A3.846,3.846,0,0,0,239.769,151.027Zm0,6.411a2.565,2.565,0,1,1,2.564-2.564A2.565,2.565,0,0,1,239.769,157.438Z" transform="translate(-235.923 -151.027)" fill="#fff" stroke="#263238" stroke-linecap="round" stroke-linejoin="round" stroke-width="0.917"/>
          <path id="Path_25261" data-name="Path 25261" d="M239.769,162.313a3.846,3.846,0,1,0,3.847,3.847A3.846,3.846,0,0,0,239.769,162.313Zm0,6.411a2.564,2.564,0,1,1,2.564-2.564A2.564,2.564,0,0,1,239.769,168.724Z" transform="translate(-235.923 -153.099)" fill="#fff" stroke="#263238" stroke-linecap="round" stroke-linejoin="round" stroke-width="0.917"/>
          <path id="Path_25262" data-name="Path 25262" d="M239.769,172.278a3.846,3.846,0,1,0,3.847,3.846A3.846,3.846,0,0,0,239.769,172.278Zm0,6.41a2.564,2.564,0,1,1,2.564-2.564A2.564,2.564,0,0,1,239.769,178.688Z" transform="translate(-235.923 -154.929)" fill="#fff" stroke="#263238" stroke-linecap="round" stroke-linejoin="round" stroke-width="0.917"/>
          <path id="Path_25263" data-name="Path 25263" d="M240.481,164.781h0a.679.679,0,0,1-.679-.68v-6.343a.679.679,0,0,1,.679-.68h0a.68.68,0,0,1,.68.68V164.1A.68.68,0,0,1,240.481,164.781Z" transform="translate(-236.635 -152.138)" fill="#fff" stroke="#263238" stroke-linecap="round" stroke-linejoin="round" stroke-width="0.917"/>
          <path id="Path_25264" data-name="Path 25264" d="M240.481,175.47h0a.679.679,0,0,1-.679-.679v-6.344a.679.679,0,0,1,.679-.68h0a.68.68,0,0,1,.68.68v6.344A.679.679,0,0,1,240.481,175.47Z" transform="translate(-236.635 -154.101)" fill="#fff" stroke="#263238" stroke-linecap="round" stroke-linejoin="round" stroke-width="0.917"/>
          <path id="Path_25265" data-name="Path 25265" d="M240.481,186.179h0a.679.679,0,0,1-.679-.68v-6.344a.679.679,0,0,1,.679-.679h0a.679.679,0,0,1,.68.679V185.5A.68.68,0,0,1,240.481,186.179Z" transform="translate(-236.635 -156.067)" fill="#fff" stroke="#263238" stroke-linecap="round" stroke-linejoin="round" stroke-width="0.917"/>
        </g>
        <path id="Path_25266" data-name="Path 25266" d="M230.284,150.57H80.691l-4.7-13h164.63Z" transform="translate(-63.36 -101.559)" fill="#263238" stroke="#263238" stroke-linecap="round" stroke-linejoin="round" stroke-width="0.888"/>
        <path id="Path_25267" data-name="Path 25267" d="M225.617,150.57H76.024l-4.7-13H235.95Z" transform="translate(-62.504 -101.559)" fill="#fff" stroke="#263238" stroke-linecap="round" stroke-linejoin="round" stroke-width="0.888"/>
        <path id="Path_25268" data-name="Path 25268" d="M108.336,348.914H96.1l3.7-255.455h2.177l6.366,9.039Z" transform="translate(-67.053 -93.459)" fill="#263238" stroke="#263238" stroke-linecap="round" stroke-linejoin="round" stroke-width="0.888"/>
        <path id="Path_25269" data-name="Path 25269" d="M105.669,348.914H93.429V102.5L99.3,93.459l6.366,9.039Z" transform="translate(-66.563 -93.459)" fill="#fff" stroke="#263238" stroke-linecap="round" stroke-linejoin="round" stroke-width="0.888"/>
        <text id="FOR_SALE" data-name="FOR
SALE" transform="translate(107.664 103.009)" fill="#fff" font-size="28" font-family="Lato-Bold, Lato" font-weight="700"><tspan x="-28" y="0">FOR</tspan><tspan x="-32" y="22">SALE</tspan></text>
        <line id="Line_100" data-name="Line 100" y1="15.717" transform="translate(29.043 239.737)" fill="none" stroke="#263238" stroke-linecap="round" stroke-linejoin="round" stroke-width="0.888"/>
        <line id="Line_101" data-name="Line 101" y1="57.396" transform="translate(31.187 198.058)" fill="none" stroke="#263238" stroke-linecap="round" stroke-linejoin="round" stroke-width="0.888"/>
        <line id="Line_102" data-name="Line 102" y1="5.714" transform="translate(29.043 231.64)" fill="none" stroke="#263238" stroke-linecap="round" stroke-linejoin="round" stroke-width="0.888"/>
        <line id="Line_103" data-name="Line 103" y1="5.714" transform="translate(35.163 148.567)" fill="none" stroke="#263238" stroke-linecap="round" stroke-linejoin="round" stroke-width="0.888"/>
        <line id="Line_104" data-name="Line 104" y1="5.714" transform="translate(29.043 5.762)" fill="none" stroke="#263238" stroke-linecap="round" stroke-linejoin="round" stroke-width="0.888"/>
        <line id="Line_105" data-name="Line 105" y1="5.714" transform="translate(29.043 13.293)" fill="none" stroke="#263238" stroke-linecap="round" stroke-linejoin="round" stroke-width="0.888"/>
        <line id="Line_106" data-name="Line 106" y1="29.817" transform="translate(35.163 160.697)" fill="none" stroke="#263238" stroke-linecap="round" stroke-linejoin="round" stroke-width="0.888"/>
        <line id="Line_107" data-name="Line 107" x2="4.287" transform="translate(10.015 38.725)" fill="none" stroke="#263238" stroke-linecap="round" stroke-linejoin="round" stroke-width="0.888"/>
        <line id="Line_108" data-name="Line 108" x2="10.241" transform="translate(11.92 40.869)" fill="none" stroke="#263238" stroke-linecap="round" stroke-linejoin="round" stroke-width="0.888"/>
        <line id="Line_109" data-name="Line 109" x2="10.241" transform="translate(50 40.869)" fill="none" stroke="#263238" stroke-linecap="round" stroke-linejoin="round" stroke-width="0.888"/>
        <line id="Line_110" data-name="Line 110" x2="3.605" transform="translate(55.12 43.251)" fill="none" stroke="#263238" stroke-linecap="round" stroke-linejoin="round" stroke-width="0.888"/>
        <line id="Line_111" data-name="Line 111" x2="21.373" transform="translate(73.3 43.251)" fill="none" stroke="#263238" stroke-linecap="round" stroke-linejoin="round" stroke-width="0.888"/>
        <line id="Line_112" data-name="Line 112" x1="3.573" transform="translate(164.346 43.251)" fill="none" stroke="#263238" stroke-linecap="round" stroke-linejoin="round" stroke-width="0.888"/>
        <line id="Line_113" data-name="Line 113" x1="12.146" transform="translate(154.105 44.918)" fill="none" stroke="#263238" stroke-linecap="round" stroke-linejoin="round" stroke-width="0.888"/>
        <path id="Path_25270" data-name="Path 25270" d="M62.526,406.1h8.01s-14.559-13-8.01-11.669,12.3,5.937,12.3,5.937-7.725-7.264-2.381-5.937,5.12,3.5,5.12,3.5.416-15.7,5.12-11.363a13.873,13.873,0,0,1,4.7,9.384s10.063-12.452,12.24-11.768,2.177,8.3,2.177,8.3,16.9-13.777,13.837-5.919-5.12,10.819-5.12,10.819,7.94-7.009,6.923-2.96a33.785,33.785,0,0,1-1.8,5.681s11.941,3.738,10.175,3.733-5.054,2.254-5.054,2.254,20.156-3.266,16.346,0-35.3,2.721-35.3,2.721,15.328,3.81,8.717,3.81-17.013-2.722-17.013-2.722-15.524,3.266-21.066,2.722,10.241-2.722,10.241-2.722S52.612,409.909,62.526,406.1Z" transform="translate(-60.521 -146.834)" fill="#263238" stroke="#263238" stroke-linecap="round" stroke-linejoin="round" stroke-width="0.917"/>
      </g>
    </g>
  </g>
</svg>
