<svg xmlns="http://www.w3.org/2000/svg" width="17.997" height="16" viewBox="0 0 17.997 16"><path d="M11.789-1A5.219,5.219,0,0,1,17,4.225a5.2,5.2,0,0,1-1.526,3.693L8.708,14.706a1,1,0,0,1-1.416,0L.525,7.918a5.241,5.241,0,0,1,0-7.386A5.2,5.2,0,0,1,7.9.532l.1.1.1-.1A5.169,5.169,0,0,1,11.789-1ZM8,12.584l6.058-6.078a3.233,3.233,0,0,0,0-4.562,3.2,3.2,0,0,0-4.539,0l-.812.814a1,1,0,0,1-1.416,0L6.48,1.944a3.2,3.2,0,0,0-4.539,0,3.237,3.237,0,0,0,0,4.562Z" transform="translate(0.997 1)" fill="#0039a7"/></svg>