<svg xmlns="http://www.w3.org/2000/svg" width="35.656" height="40.5" viewBox="0 0 35.656 40.5"><g transform="translate(-5.35 -1.675)"><g transform="translate(5.6 1.925)"><path d="M36.228,41.925h-26.1A4.532,4.532,0,0,1,5.6,37.4V17.223A4.451,4.451,0,0,1,7.265,13.76L20.315,2.974a4.433,4.433,0,0,1,5.726,0l13.05,10.72a4.451,4.451,0,0,1,1.665,3.462V37.331a4.547,4.547,0,0,1-4.528,4.594ZM23.178,4.638a2,2,0,0,0-1.2.4L8.929,15.824a1.874,1.874,0,0,0-.666,1.4V37.4a1.861,1.861,0,0,0,1.864,1.864h26.1A1.861,1.861,0,0,0,38.093,37.4V17.223a1.874,1.874,0,0,0-.666-1.4L24.377,5.038a2,2,0,0,0-1.2-.4Z" transform="translate(-5.6 -1.925)"/><path d="M36.228,42.175h-26.1A4.783,4.783,0,0,1,5.35,37.4V17.223a4.7,4.7,0,0,1,1.757-3.656L20.156,2.781a4.683,4.683,0,0,1,6.046,0L39.25,13.5a4.7,4.7,0,0,1,1.756,3.656V37.331a4.837,4.837,0,0,1-1.413,3.448A4.728,4.728,0,0,1,36.228,42.175Zm-13.05-40a4.211,4.211,0,0,0-2.7.99L7.424,13.953a4.2,4.2,0,0,0-1.574,3.27V37.4a4.283,4.283,0,0,0,4.278,4.278h26.1a4.316,4.316,0,0,0,4.278-4.344V17.156a4.2,4.2,0,0,0-1.572-3.268L25.882,3.167A4.213,4.213,0,0,0,23.178,2.175Zm13.05,37.337h-26.1A2.117,2.117,0,0,1,8.013,37.4V17.223a2.127,2.127,0,0,1,.756-1.59L21.82,4.845a2.247,2.247,0,0,1,2.712,0L37.586,15.632a2.128,2.128,0,0,1,.757,1.591V37.4A2.117,2.117,0,0,1,36.228,39.512ZM23.178,4.888a1.74,1.74,0,0,0-1.042.345L9.088,16.017a1.614,1.614,0,0,0-.575,1.206V37.4a1.616,1.616,0,0,0,1.614,1.614h26.1A1.616,1.616,0,0,0,37.843,37.4V17.223a1.615,1.615,0,0,0-.576-1.206L24.217,5.23A1.738,1.738,0,0,0,23.178,4.888Z" transform="translate(-5.6 -1.925)" fill="#fff"/></g><g transform="translate(13.856 33.402)"><path d="M35.312,51.863H19.332a1.332,1.332,0,0,1,0-2.663h15.98a1.332,1.332,0,0,1,0,2.663Z" transform="translate(-18 -49.2)"/><path d="M35.312,52.113H19.332a1.582,1.582,0,1,1,0-3.163h15.98a1.582,1.582,0,1,1,0,3.163ZM19.332,49.45a1.082,1.082,0,1,0,0,2.163h15.98a1.082,1.082,0,0,0,0-2.163Z" transform="translate(-18 -49.2)" fill="#fff"/></g></g></svg>