<svg xmlns="http://www.w3.org/2000/svg" width="15.469" height="22" viewBox="0 0 15.469 22"><g transform="translate(-76)"><g transform="translate(76)"><path d="M83.734,0a7.736,7.736,0,0,0-6.58,11.8l6.14,9.894a.645.645,0,0,0,.548.3h.005a.644.644,0,0,0,.548-.313l5.983-9.99A7.736,7.736,0,0,0,83.734,0Zm5.537,11.035-5.44,9.082-5.582-9a6.45,6.45,0,1,1,11.021-.087Z" transform="translate(-76)" fill="#585858"/></g><g transform="translate(79.867 3.867)"><path d="M169.867,90a3.867,3.867,0,1,0,3.867,3.867A3.872,3.872,0,0,0,169.867,90Zm0,6.454a2.587,2.587,0,1,1,2.582-2.587A2.589,2.589,0,0,1,169.867,96.454Z" transform="translate(-166 -90)" fill="#585858"/></g></g></svg>