<svg xmlns="http://www.w3.org/2000/svg" width="20.98" height="20" viewBox="0 0 20.98 20"><path d="M9.343,3,7.423,5.222H4.1A2.169,2.169,0,0,0,2,7.444V20.778A2.169,2.169,0,0,0,4.1,23H20.882a2.169,2.169,0,0,0,2.1-2.222V7.444a2.169,2.169,0,0,0-2.1-2.222H17.557L15.637,3ZM12.49,19.667a5.409,5.409,0,0,1-5.245-5.556A5.409,5.409,0,0,1,12.49,8.556a5.409,5.409,0,0,1,5.245,5.556A5.409,5.409,0,0,1,12.49,19.667Zm0-1.111L13.8,15.5l2.885-1.389L13.8,12.722,12.49,9.667l-1.311,3.056L8.294,14.111,11.179,15.5Z" transform="translate(-2 -3)" fill="#95989a"/></svg>