<svg xmlns="http://www.w3.org/2000/svg" width="13.773" height="16.5" viewBox="0 0 13.773 16.5"><g transform="translate(0.75 0.75)"><path d="M6.136-.75a6.894,6.894,0,0,1,6.886,6.886c0,5.115-6.206,9.312-6.47,9.488a.75.75,0,0,1-.832,0c-.264-.176-6.47-4.372-6.47-9.488A6.894,6.894,0,0,1,6.136-.75Zm0,14.827c1.329-.992,5.387-4.318,5.387-7.941a5.386,5.386,0,0,0-10.773,0C.75,9.767,4.806,13.087,6.136,14.077Z" transform="translate(0 0)" fill="#003aa8"/><path d="M1.748-.75a2.5,2.5,0,1,1-2.5,2.5A2.5,2.5,0,0,1,1.748-.75Zm0,3.5a1,1,0,1,0-1-1A1,1,0,0,0,1.748,2.746Z" transform="translate(4.388 4.314)" fill="#003aa8"/></g></svg>