<svg xmlns="http://www.w3.org/2000/svg" width="17.497" height="15.5" viewBox="0 0 17.497 15.5"><path d="M11.789-.75A4.969,4.969,0,0,1,16.75,4.225,4.948,4.948,0,0,1,15.3,7.741L8.531,14.529a.75.75,0,0,1-1.062,0L.7,7.741A4.99,4.99,0,0,1,.7.708a4.951,4.951,0,0,1,7.017,0L8,.989,8.28.708A4.92,4.92,0,0,1,11.789-.75ZM8,12.938l6.235-6.255a3.483,3.483,0,0,0,0-4.915,3.45,3.45,0,0,0-4.893,0l-.811.814a.75.75,0,0,1-1.062,0l-.811-.814a3.451,3.451,0,0,0-4.893,0,3.487,3.487,0,0,0,0,4.915Z" transform="translate(0.747 0.75)" fill="#fff"/></svg>