<svg xmlns="http://www.w3.org/2000/svg" width="21.815" height="16" viewBox="0 0 21.815 16"><g transform="translate(-1506 -582)"><path d="M14.992,0H1.363A1.411,1.411,0,0,0,0,1.454,1.411,1.411,0,0,0,1.363,2.908H14.992a1.411,1.411,0,0,0,1.363-1.454A1.411,1.411,0,0,0,14.992,0Z" transform="translate(1510.097 582)" fill="#fff"/><path d="M2.734,1.448a1.5,1.5,0,0,0-.4-1.025A1.3,1.3,0,0,0,.41.423a1.5,1.5,0,0,0-.4,1.025,1.32,1.32,0,0,0,0,.283,1.378,1.378,0,0,0,.075.276,1.722,1.722,0,0,0,.129.247,1.318,1.318,0,0,0,.17.225,1.223,1.223,0,0,0,.2.174,1.093,1.093,0,0,0,.232.138A1.08,1.08,0,0,0,1.1,2.9a1.121,1.121,0,0,0,.266,0A1.335,1.335,0,0,0,2.5,2.255a1.722,1.722,0,0,0,.129-.247,1.4,1.4,0,0,0,.1-.276A1.32,1.32,0,0,0,2.734,1.448Z" transform="translate(1506 582.008)" fill="#fff"/><path d="M2.726,1.448a1.325,1.325,0,0,0,0-.283A1.224,1.224,0,0,0,2.624.9,1.486,1.486,0,0,0,2.494.641a1.034,1.034,0,0,0-.17-.218A1.3,1.3,0,0,0,.4.423,1.5,1.5,0,0,0,0,1.448a1.708,1.708,0,0,0,.1.56,1.666,1.666,0,0,0,.123.247A1.374,1.374,0,0,0,.4,2.473a1.013,1.013,0,0,0,.2.182,1.088,1.088,0,0,0,.232.138,1.1,1.1,0,0,0,.259.08,1.063,1.063,0,0,0,.266.029,1.088,1.088,0,0,0,.266,0,1.055,1.055,0,0,0,.252-.08,1.118,1.118,0,0,0,.239-.138,1.013,1.013,0,0,0,.2-.182,1.049,1.049,0,0,0,.17-.218,1.193,1.193,0,0,0,.129-.247,1.284,1.284,0,0,0,.1-.305A1.282,1.282,0,0,0,2.726,1.448Z" transform="translate(1506.008 588.548)" fill="#fff"/><path d="M2.726,1.448a1.331,1.331,0,0,0,0-.283,1.287,1.287,0,0,0-.1-.276A1.722,1.722,0,0,0,2.494.641a1.049,1.049,0,0,0-.17-.218A1.3,1.3,0,0,0,.4.423a1.049,1.049,0,0,0-.17.218A1.722,1.722,0,0,0,.1.888a1.253,1.253,0,0,0-.075.276A1.33,1.33,0,0,0,0,1.448,1.5,1.5,0,0,0,.4,2.473a1.013,1.013,0,0,0,.2.182,1.088,1.088,0,0,0,.232.138,1.1,1.1,0,0,0,.259.08,1.063,1.063,0,0,0,.266.029,1.088,1.088,0,0,0,.266,0,1.055,1.055,0,0,0,.252-.08,1.118,1.118,0,0,0,.239-.138,1.013,1.013,0,0,0,.2-.182,1.049,1.049,0,0,0,.17-.218,1.188,1.188,0,0,0,.129-.247,1.289,1.289,0,0,0,.1-.305A1.282,1.282,0,0,0,2.726,1.448Z" transform="translate(1506.008 595.091)" fill="#fff"/><path d="M16.355,0H1.363A1.411,1.411,0,0,0,0,1.454,1.411,1.411,0,0,0,1.363,2.908H16.355a1.411,1.411,0,0,0,1.363-1.454A1.411,1.411,0,0,0,16.355,0Z" transform="translate(1510.097 588.542)" fill="#fff"/><path d="M10.222,0H1.363A1.411,1.411,0,0,0,0,1.454,1.411,1.411,0,0,0,1.363,2.908h8.859a1.411,1.411,0,0,0,1.363-1.454A1.411,1.411,0,0,0,10.222,0Z" transform="translate(1510.097 595.084)" fill="#fff"/></g></svg>