<svg xmlns="http://www.w3.org/2000/svg" width="11.989" height="14.32" viewBox="0 0 11.989 14.32"><g transform="translate(0.75 0.75)"><path d="M5.245-.75a6,6,0,0,1,5.995,5.995c0,4.43-5.351,8.048-5.579,8.2a.75.75,0,0,1-.832,0C4.6,13.292-.75,9.674-.75,5.245A6,6,0,0,1,5.245-.75Zm0,12.645c1.185-.894,4.5-3.66,4.5-6.651a4.495,4.495,0,0,0-8.989,0C.75,8.244,4.058,11,5.244,11.9Z" transform="translate(0 0)" fill="#003aa8"/><path d="M1.748-.75a2.5,2.5,0,1,1-2.5,2.5A2.5,2.5,0,0,1,1.748-.75Zm0,3.5a1,1,0,1,0-1-1A1,1,0,0,0,1.748,2.746Z" transform="translate(3.496 3.496)" fill="#003aa8"/></g></svg>