<svg xmlns="http://www.w3.org/2000/svg" width="25" height="20.254" viewBox="0 0 25 20.254"><g transform="translate(0 -2.373)"><path d="M2.367.426,0,5.823H6.3L7.98.083A18.072,18.072,0,0,0,2.367.426Z" transform="translate(0 16.804)" fill="#fff"/><path d="M3.627,2.566a16.561,16.561,0,0,1,1.67.118L6.083,0H1.233L0,2.812a20.956,20.956,0,0,1,3.627-.246Z" transform="translate(3.129 12.679)" fill="#fff"/><path d="M5.7,5.911,4.9,3.329A37.143,37.143,0,0,1,2.057,0H.87L0,2.97A7.093,7.093,0,0,1,3.341,4.714,4.645,4.645,0,0,0,5.7,5.911Z" transform="translate(9.97 12.679)" fill="#fff"/><path d="M4.282,1.352A5.67,5.67,0,0,0,1.6,0L0,5.478H8.989L8.252,3.1A6.528,6.528,0,0,1,4.282,1.352Z" transform="translate(7.928 17.149)" fill="#fff"/><path d="M3.858,0q-.326.431-.695.883A38.172,38.172,0,0,1,0,4.3L.48,5.851H6.423Z" transform="translate(16.86 12.859)" fill="#fff"/><path d="M6.145,0H0L.729,2.355H7.177Z" transform="translate(17.823 20.272)" fill="#fff"/><path d="M.91,1.815A.91.91,0,1,0,0,.905.911.911,0,0,0,.91,1.815Z" transform="translate(15.53 6.27)" fill="#fff"/><path d="M2.8,10.381c.853,1.037,1.548,1.789,2.373,2.629,1.757-1.693,5.3-5.946,5.174-7.835A5.174,5.174,0,1,0,0,5.175C-.019,6.294,1.048,8.248,2.8,10.381ZM2.7,4.8A2.472,2.472,0,1,1,5.175,7.275,2.475,2.475,0,0,1,2.7,4.8Z" transform="translate(11.265 2.373)" fill="#fff"/></g></svg>