<svg xmlns="http://www.w3.org/2000/svg" width="31.988" height="19.974" viewBox="0 0 31.988 19.974"><path d="M8.649,15.7H0V0H8.65Z" transform="translate(11.67 2.135)" fill="#ff5f00"/><path d="M12.218,9.987a10.007,10.007,0,0,1,3.775-7.852A9.779,9.779,0,0,0,9.884,0,9.936,9.936,0,0,0,0,9.987a9.936,9.936,0,0,0,9.884,9.987,9.779,9.779,0,0,0,6.109-2.135,10.007,10.007,0,0,1-3.776-7.852" transform="translate(0 0)" fill="#eb001b"/><path d="M15.994,9.987A9.936,9.936,0,0,1,6.11,19.974,9.782,9.782,0,0,1,0,17.839,10.006,10.006,0,0,0,3.776,9.987,10.006,10.006,0,0,0,0,2.135,9.782,9.782,0,0,1,6.11,0a9.936,9.936,0,0,1,9.884,9.987" transform="translate(15.994 0)" fill="#f79e1b"/></svg>