<svg xmlns="http://www.w3.org/2000/svg" width="26.991" height="40" viewBox="0 0 26.991 40"><g transform="translate(-32.913 -17.25)"><path d="M52.181,59.005a8.825,8.825,0,1,0,6.249,2.585,8.835,8.835,0,0,0-6.249-2.585Zm7.336,8.835a7.336,7.336,0,1,1-7.337-7.34,7.336,7.336,0,0,1,7.337,7.34Z" transform="translate(-5.969 -23.893)"/><path d="M59.785,17.594a.748.748,0,0,0-.63-.342H50.292a.748.748,0,0,0-.681.437l-3.1,6.76-3.1-6.762a.749.749,0,0,0-.681-.437H33.874a.749.749,0,0,0-.681,1.06l6.45,14.079a13.3,13.3,0,1,0,13.614.284L59.836,18.31a.747.747,0,0,0-.051-.716Zm-9.013,1.155h2.785L48.044,30.785a13.475,13.475,0,0,0-2.735-.107Zm-8.516,0,3.435,7.5L44.3,29.286,39.473,18.747Zm-4.432,0,5.59,12.2a12.829,12.829,0,0,0-2.431.77L35.041,18.747Zm20.188,25.2a11.8,11.8,0,1,1-11.8-11.807,11.8,11.8,0,0,1,11.8,11.807Zm-6.07-12a12.785,12.785,0,0,0-2.388-.868L55.2,18.747h2.785Z"/></g></svg>