<svg xmlns="http://www.w3.org/2000/svg" width="23.987" height="27.988" viewBox="0 0 23.987 27.988"><g transform="translate(-0.003 -0.008)"><path d="M20.424,2.11C19.113.633,16.744,0,13.713,0h-8.8A1.256,1.256,0,0,0,3.672,1.05L.01,24.019a.749.749,0,0,0,.746.863H6.186L7.55,16.329l-.042.268a1.251,1.251,0,0,1,1.239-1.051h2.581c5.07,0,9.039-2.036,10.2-7.926q.052-.261.09-.509h0a5.514,5.514,0,0,0-1.193-5" transform="translate(0.003 0.008)" fill="#27346a"/><path d="M9.628,6.326A1.114,1.114,0,0,1,10.1,6.22H17a14.552,14.552,0,0,1,2.274.163q.292.046.581.11.409.089.808.218a6.264,6.264,0,0,1,.954.4,5.514,5.514,0,0,0-1.193-5C19.112.633,16.744,0,13.713,0h-8.8A1.255,1.255,0,0,0,3.672,1.05L.01,24.018a.749.749,0,0,0,.745.863H6.186L9.016,7.139A1.091,1.091,0,0,1,9.628,6.326Z" transform="translate(0.003 0.008)" fill="#27346a"/><path d="M15.724.509c-1.16,5.889-5.129,7.926-10.2,7.926H2.944A1.25,1.25,0,0,0,1.705,9.486L.008,20.121a.656.656,0,0,0,.652.756H5.238a1.1,1.1,0,0,0,1.088-.919l.045-.231.863-5.407.056-.3A1.1,1.1,0,0,1,8.377,13.1h.685c4.435,0,7.907-1.781,8.922-6.933.424-2.153.2-3.951-.916-5.213A4.368,4.368,0,0,0,15.814,0c-.027.166-.055.335-.09.509Z" transform="translate(5.806 7.119)" fill="#2790c3"/><path d="M12.895.412q-.271-.078-.547-.139T11.766.164A14.471,14.471,0,0,0,9.491,0H2.6A1.1,1.1,0,0,0,1.508.92L.042,10.108,0,10.376A1.25,1.25,0,0,1,1.239,9.326H3.82c5.07,0,9.039-2.036,10.2-7.926.035-.174.063-.343.09-.509a6.3,6.3,0,0,0-.954-.4q-.13-.042-.261-.08" transform="translate(7.512 6.229)" fill="#1f264f"/></g></svg>