<svg xmlns="http://www.w3.org/2000/svg" xmlns:xlink="http://www.w3.org/1999/xlink" width="90" height="90" viewBox="0 0 90 90"><defs><clipPath id="a"><rect width="90" height="90" rx="12" fill="#fff"/></clipPath></defs><g transform="translate(-791 -710)"><g transform="translate(791 710)"><rect width="90" height="90" rx="12" fill="#fff"/></g><path d="M17.556,3,13.489,7.444H6.444A4.458,4.458,0,0,0,2,11.889V38.556A4.458,4.458,0,0,0,6.444,43H42a4.458,4.458,0,0,0,4.444-4.444V11.889A4.458,4.458,0,0,0,42,7.444H34.956L30.889,3Zm6.667,33.333A11.111,11.111,0,1,1,35.333,25.222,11.115,11.115,0,0,1,24.222,36.333Zm0-2.222L27,28l6.111-2.778L27,22.444l-2.778-6.111-2.778,6.111-6.111,2.778L21.444,28Z" transform="translate(812 732)" fill="#afafaf"/></g></svg>