<svg xmlns="http://www.w3.org/2000/svg" xmlns:xlink="http://www.w3.org/1999/xlink" width="50" height="50" viewBox="0 0 50 50">
  <defs>
    <linearGradient id="linear-gradient" x1="0.5" x2="0.5" y2="1" gradientUnits="objectBoundingBox">
      <stop offset="0" stop-color="#fff"/>
      <stop offset="1" stop-color="#ececec"/>
    </linearGradient>
  </defs>
  <g id="Group_2907" data-name="Group 2907" transform="translate(-752 -373)">
    <g id="Ellipse_435" data-name="Ellipse 435" transform="translate(752 373)" stroke="#e8e8e8" stroke-width="1" fill="url(#linear-gradient)">
      <circle cx="25" cy="25" r="25" stroke="none"/>
      <circle cx="25" cy="25" r="24.5" fill="none"/>
    </g>
    <g id="_06-Coin" data-name="06-Coin" transform="translate(761 382)">
      <g id="filled" transform="translate(4.001 4)">
        <path id="Path_25340" data-name="Path 25340" d="M28.826,11.317,25.652,8.143a.6.6,0,0,0-1.016.421v.992h-1.19V6.183A2.185,2.185,0,0,0,21.262,4H11.739A2.185,2.185,0,0,0,9.556,6.183v12.9H8.366v-.992a.6.6,0,0,0-1.016-.421L4.175,20.841a.6.6,0,0,0,0,.842l3.175,3.175a.6.6,0,0,0,1.016-.421v-.992h1.19v3.373A2.185,2.185,0,0,0,11.739,29h9.524a2.185,2.185,0,0,0,2.183-2.183v-12.9h1.19v.992a.6.6,0,0,0,1.016.421l3.175-3.175a.6.6,0,0,0,0-.842ZM11.739,5.19h9.524a.993.993,0,0,1,.992.992v.992H10.747V6.183A.993.993,0,0,1,11.739,5.19ZM21.262,27.81H11.739a.993.993,0,0,1-.992-.992v-.992H22.254v.992A.993.993,0,0,1,21.262,27.81Zm4.563-14.334v-.15a.6.6,0,0,0-.6-.6H20.469a.6.6,0,0,0,0,1.19h1.786V24.635H10.747v-1.19h1.786a.6.6,0,1,0,0-1.19H7.77a.6.6,0,0,0-.6.6V23L5.438,21.262l1.738-1.738v.15a.6.6,0,0,0,.6.6h4.762a.6.6,0,1,0,0-1.19H10.747V8.365H22.254v1.19H20.469a.6.6,0,0,0,0,1.19h4.762a.6.6,0,0,0,.6-.6V10l1.738,1.738Z" transform="translate(-4.001 -4)" fill="#6d6d6d"/>
        <path id="Path_25341" data-name="Path 25341" d="M198.183,150.778h1.984a.6.6,0,0,1,.6.6.6.6,0,0,0,1.19,0,1.788,1.788,0,0,0-1.786-1.786h-.6V148.6a.6.6,0,0,0-1.19,0v.992h-.2a2.183,2.183,0,1,0,0,4.365h1.587a.992.992,0,1,1,0,1.984h-1.984a.6.6,0,0,1-.6-.6.6.6,0,1,0-1.19,0,1.788,1.788,0,0,0,1.786,1.786h.6v.992a.6.6,0,1,0,1.19,0v-.992h.2a2.183,2.183,0,0,0,0-4.365h-1.587a.992.992,0,1,1,0-1.984Z" transform="translate(-186.476 -140.857)" fill="#6d6d6d"/>
      </g>
    </g>
  </g>
</svg>
