<svg xmlns="http://www.w3.org/2000/svg" width="21.089" height="18" viewBox="0 0 21.089 18"><g transform="translate(0 -37.502)"><path d="M21.089,52.413a4.8,4.8,0,0,0-4.17-4.759V42.733h.339a1.854,1.854,0,1,0,0-3.707H12.934v1.236h1.236V41.7c-1.261.657-1.036,2.38-1.05,4.6,0,1.282-.268,3.434-2.059,3.434H9.6V42.692H8.535V37.5H1.052v5.681A1.855,1.855,0,0,0,2.307,46.4h.175a11.385,11.385,0,0,0-.876,1.112H0v1.236H.877A8.636,8.636,0,0,0,0,53.031H1.771a3.09,3.09,0,0,0,6.054,0h5.449a3.09,3.09,0,0,0,6.054,0h1.761v-.618ZM15.4,40.262h1.854a.618.618,0,1,1,0,1.236H15.4ZM2.287,42.692V38.738H7.3v3.954Zm-.6,1.854a.619.619,0,0,1,.618-.618H8.361v1.236H2.307a.619.619,0,0,1-.618-.618ZM8.361,46.4v2.8a4.791,4.791,0,0,0-5.653-1.108,11.114,11.114,0,0,1,1.5-1.695H8.361Zm-5.31,6.632H6.546A1.855,1.855,0,0,1,3.051,53.031ZM1.289,51.795a3.563,3.563,0,0,1,7.019,0ZM9.6,50.972h1.462A2.875,2.875,0,0,0,13.4,49.847c1.273-1.623.882-4.2.954-5.177,0-1.538.144-1.936.7-1.936h.629v9.062H9.6Zm4.957,2.059h3.495A1.855,1.855,0,0,1,14.554,53.031Zm2.365-1.236V48.9A3.567,3.567,0,0,1,19.8,51.795Z" transform="translate(0)" fill="#ee1956"/></g></svg>