<svg xmlns="http://www.w3.org/2000/svg" width="20.331" height="20.331" viewBox="0 0 20.331 20.331"><g transform="translate(-344 -824)"><g transform="translate(-0.553 -3.834)"><path d="M16.5,14.082a1,1,0,0,1-.686-1.728L24.87,3.831a1,1,0,0,1,1.371,1.456L17.185,13.81A1,1,0,0,1,16.5,14.082Z" transform="translate(337.003 825.653)" fill="#fff"/><path d="M21.331,2a1,1,0,0,1,.944,1.33L15.859,21.662A1,1,0,0,1,14,21.738l-3.51-7.9-7.9-3.51A1,1,0,0,1,2.67,8.472L21,2.056A1,1,0,0,1,21.331,2ZM14.8,18.62,19.7,4.63l-13.99,4.9,5.944,2.642a1,1,0,0,1,.508.508Z" transform="translate(342.553 825.834)" fill="#fff"/></g></g></svg>