<svg xmlns="http://www.w3.org/2000/svg" width="16.25" height="15" viewBox="0 0 16.25 15"><path d="M14.275,14.975a.367.367,0,0,1-.119-.07l-1.467-1.291a.3.3,0,0,1,0-.456.4.4,0,0,1,.519,0l.841.74V6.423l-.842.74a.4.4,0,0,1-.519,0,.3.3,0,0,1,0-.456l1.467-1.291a.377.377,0,0,1,.12-.07.408.408,0,0,1,.28,0,.367.367,0,0,1,.119.07l1.467,1.291a.3.3,0,0,1,0,.456.4.4,0,0,1-.519,0l-.842-.74V13.9l.842-.74a.4.4,0,0,1,.519,0,.3.3,0,0,1,0,.456l-1.467,1.291a.367.367,0,0,1-.119.07.406.406,0,0,1-.28,0ZM.349,15a.328.328,0,1,1,0-.654H1.4V7.715l-.821.659a.365.365,0,0,1-.227.079.358.358,0,0,1-.265-.115.311.311,0,0,1,.038-.461L5.015,3.95a.367.367,0,0,1,.455,0l4.893,3.928a.317.317,0,0,1,.121.227.312.312,0,0,1-.083.234.357.357,0,0,1-.265.115.364.364,0,0,1-.227-.079l-.821-.659v6.631h1.049a.328.328,0,1,1,0,.654Zm6.29-4.582a.339.339,0,0,1,.349.327v3.6h1.4V7.154L5.242,4.63,2.1,7.154v7.192h1.4v-3.6a.339.339,0,0,1,.349-.327ZM4.194,14.346h2.1V11.072h-2.1Zm-.157-6.12c-.2,0-.367-.108-.367-.242s.164-.242.367-.242H6.972c.2,0,.367.108.367.242s-.164.242-.367.242Zm10.2-4.938a.329.329,0,0,1,0-.479l.81-.776H1.206l.81.776a.329.329,0,0,1,0,.479.364.364,0,0,1-.5,0L.1,1.933a.332.332,0,0,1-.077-.11A.33.33,0,0,1,.1,1.454L1.516.1a.364.364,0,0,1,.5,0,.328.328,0,0,1,0,.479l-.81.777H15.044l-.81-.777a.328.328,0,0,1,0-.479.364.364,0,0,1,.5,0l1.413,1.355a.334.334,0,0,1,.077.11.33.33,0,0,1,0,.259.341.341,0,0,1-.077.11L14.734,3.288a.364.364,0,0,1-.5,0Z" fill="#003aa8"/></svg>