<svg xmlns="http://www.w3.org/2000/svg" width="20.033" height="20" viewBox="0 0 20.033 20"><g transform="translate(0 -0.074)"><path d="M2.739,19.766V18.012H17.294v1.754a.308.308,0,0,0,.616,0V17.952h1.814a.308.308,0,1,0,0-.616H17.911V2.812h1.814a.308.308,0,1,0,0-.616H17.911V.382a.308.308,0,0,0-.616,0V2.2H2.739V.382a.308.308,0,1,0-.616,0V2.2H.308a.308.308,0,1,0,0,.616H2.095V17.336H.308a.308.308,0,1,0,0,.616H2.122v1.814a.308.308,0,0,0,.616,0ZM2.725,7.5V2.812H7.449V7.5Zm4.929,0V2.812h4.71V7.5Zm4.93,0V2.812h4.71V7.5Zm-9.859,4.93V7.707H7.449v4.724H2.725Zm4.93,0V7.708h4.711v4.724Zm4.929,0V7.708h4.71v4.724ZM2.725,17.361V12.637H7.449v4.724Zm4.93,0V12.637h4.711v4.724Zm4.929,0V12.637h4.71v4.724ZM13,16.978V13.1h3.878v3.878H13Z" transform="translate(0 0)"/></g></svg>