<svg xmlns="http://www.w3.org/2000/svg" width="19.945" height="19.05" viewBox="0 0 19.945 19.05"><path d="M175.6,461.684a.819.819,0,0,1,1.558,0l1.793,5.519a.817.817,0,0,0,.777.564h5.8a.819.819,0,0,1,.481,1.481l-4.7,3.411a.818.818,0,0,0-.3.915l1.793,5.519a.818.818,0,0,1-1.26.915l-4.694-3.411a.82.82,0,0,0-.962,0l-4.694,3.411a.818.818,0,0,1-1.26-.915l1.793-5.519a.818.818,0,0,0-.3-.915l-4.7-3.411a.819.819,0,0,1,.481-1.481h5.8a.817.817,0,0,0,.777-.564Z" transform="translate(-166.405 -461.118)" fill="#ffa800"/></svg>