<svg xmlns="http://www.w3.org/2000/svg" width="13.611" height="13" viewBox="0 0 13.611 13"><path d="M172.679,461.5a.559.559,0,0,1,1.063,0l1.224,3.766a.558.558,0,0,0,.53.385h3.96a.559.559,0,0,1,.328,1.01l-3.2,2.328a.558.558,0,0,0-.2.624l1.224,3.766a.558.558,0,0,1-.86.624l-3.2-2.328a.56.56,0,0,0-.657,0l-3.2,2.328a.558.558,0,0,1-.86-.624l1.224-3.766a.558.558,0,0,0-.2-.624l-3.2-2.328a.559.559,0,0,1,.328-1.01h3.961a.558.558,0,0,0,.53-.385Z" transform="translate(-166.405 -461.118)" fill="#ffa800"/></svg>