<svg xmlns="http://www.w3.org/2000/svg" width="110" height="110" viewBox="0 0 110 110"><g transform="translate(-133 -164)"><path d="M55,3a52.015,52.015,0,0,0-20.24,99.915A52.014,52.014,0,0,0,75.24,7.085,51.672,51.672,0,0,0,55,3m0-3A55,55,0,1,1,0,55,55,55,0,0,1,55,0Z" transform="translate(133 164)" fill="#003aa8"/><path d="M3862.188,12248.843l-13.622-19.91a2.5,2.5,0,0,1,4.126-2.824l10.758,15.723,37.781-26.669a2.5,2.5,0,1,1,2.883,4.084Z" transform="translate(-5150.721 -11448.385) rotate(-7)" fill="#003aa8"/></g></svg>