<svg xmlns="http://www.w3.org/2000/svg" width="28" height="28" viewBox="0 0 28 28"><circle cx="14" cy="14" r="14" fill="#f0f0f0"/><g transform="translate(0.482 3.043)"><path d="M244.87,192.869h14.609a14.014,14.014,0,0,0-.482-3.652H244.87Z" transform="translate(-231.961 -181.913)" fill="#d80027"/><path d="M244.87,59.3h12.554a14.074,14.074,0,0,0-3.23-3.652H244.87Z" transform="translate(-231.961 -55.652)" fill="#d80027"/><path d="M105.359,459.391a13.94,13.94,0,0,0,8.715-3.044H96.644A13.94,13.94,0,0,0,105.359,459.391Z" transform="translate(-91.841 -434.435)" fill="#d80027"/><path d="M10.392,326.434h23.89a13.916,13.916,0,0,0,1.573-3.652H8.819A13.916,13.916,0,0,0,10.392,326.434Z" transform="translate(-8.819 -308.173)" fill="#d80027"/></g><path d="M6.485,2.186H7.761l-1.187.862.453,1.4L5.841,3.581l-1.187.862.392-1.205A14.077,14.077,0,0,0,2.33,6.265h.409l-.755.549q-.177.294-.339.6l.361,1.11-.673-.489Q1.082,8.564.875,9.12l.4,1.223H2.739L1.552,11.2l.453,1.4L.819,11.738l-.711.516A14.135,14.135,0,0,0,0,14H14V0A13.934,13.934,0,0,0,6.485,2.186ZM7.027,12.6l-1.187-.862L4.654,12.6l.453-1.4-1.187-.862H5.388l.453-1.4.453,1.4H7.761L6.574,11.2ZM6.574,7.127l.453,1.4L5.841,7.66l-1.187.862.453-1.4L3.921,6.265H5.388l.453-1.4.453,1.4H7.761ZM12.049,12.6l-1.187-.862L9.676,12.6l.453-1.4-1.187-.862h1.467l.453-1.4.453,1.4h1.467L11.6,11.2ZM11.6,7.127l.453,1.4L10.863,7.66l-1.187.862.453-1.4L8.942,6.265h1.467l.453-1.4.453,1.4h1.467Zm0-4.078.453,1.4-1.187-.862-1.187.862.453-1.4L8.942,2.186h1.467l.453-1.4.453,1.4h1.467Z" fill="#0052b4"/></svg>