<svg xmlns="http://www.w3.org/2000/svg" width="30" height="25" viewBox="0 0 30 25"><g transform="translate(-2 -7)"><path d="M18.025,25H5V20.131l2.952-3.4a1.561,1.561,0,0,1,2.376.038L12.87,19.9l4.815-5.83a1.565,1.565,0,0,1,2.39,0l3.471,4.2A7.5,7.5,0,0,0,18.025,25ZM13.1,10.759a2,2,0,1,0,2,2A2,2,0,0,0,13.1,10.759ZM18.025,26H4.5a.5.5,0,0,1-.5-.5V9.5A.5.5,0,0,1,4.5,9h21a.5.5,0,0,1,.5.5v8.525a7.438,7.438,0,0,1,2,.412V8.5A1.5,1.5,0,0,0,26.5,7H3.5A1.5,1.5,0,0,0,2,8.5v18A1.5,1.5,0,0,0,3.5,28H18.438a7.437,7.437,0,0,1-.412-2ZM25.5,19A6.5,6.5,0,1,0,32,25.5,6.5,6.5,0,0,0,25.5,19ZM28,25.5H27v4a.5.5,0,0,1-.5.5h-2a.5.5,0,0,1-.5-.5V25.488l-.994.012a.5.5,0,0,1-.413-.791l2.5-3.5a.519.519,0,0,1,.814,0l2.5,3.5A.5.5,0,0,1,28,25.5Z" fill="#afafaf"/></g></svg>