<svg xmlns="http://www.w3.org/2000/svg" width="43.736" height="14.706" viewBox="0 0 43.736 14.706"><g transform="translate(2.917 -19)"><g transform="translate(-3 19)"><path d="M21.159,13.72l.53-3.147c1.462,1.2,5.889,1.54,5.889-.362s-4.936-1.948-4.936-5.569C22.642.792,26.848,0,28.619,0a10.1,10.1,0,0,1,3.209.611l-.509,3.011c-1.527-.86-5-1.064-5,.521S31.3,6.067,31.3,9.712c0,3.51-3.674,4.8-6.109,4.8A9.809,9.809,0,0,1,21.159,13.72Zm19.3.55-.418-2.083H35.5l-.743,2.083H31.04L36.363,1.3A1.645,1.645,0,0,1,38.01.25h2.869L43.736,14.27Zm-25.069,0L17.622.25h3.569L18.96,14.27Zm-8.557,0L3.733,2.09A13.2,13.2,0,0,0,0,.488L.066.25H5.691A1.54,1.54,0,0,1,7.384,1.513l1.2,6.3h0l.4,2.076L12.389.25H16.23L10.552,14.27Z" transform="translate(0.083 0.195)" fill="#2566af"/></g><path d="M9,8,7.741,1.335A1.62,1.62,0,0,0,5.966,0H.069L0,.251A14.3,14.3,0,0,1,5.553,3.127,11.581,11.581,0,0,1,9,8Z" transform="translate(4 19)" fill="#e6a540"/></g></svg>